<?xml version="1.0" encoding="utf-8"?>
<!-- Generator: Adobe Illustrator 13.0.0, SVG Export Plug-In . SVG Version: 6.00 Build 14948)  -->
<!DOCTYPE svg PUBLIC "-//W3C//DTD SVG 1.1//EN" "http://www.w3.org/Graphics/SVG/1.1/DTD/svg11.dtd">
<svg version="1.1" id="Layer_1" xmlns="http://www.w3.org/2000/svg" xmlns:xlink="http://www.w3.org/1999/xlink" x="0px" y="0px"
	 width="85px" height="85px" viewBox="0 0 85 85" enable-background="new 0 0 85 85" xml:space="preserve">
<g>
	<path fill="#BDBDBD" d="M9.718,20.487c1.688,1.536,1.338,5.757,0.798,6.947c-0.529,1.199-2.801,1.774-5.029,1.29
		c-2.226-0.479-4.589,1.636-5.255,4.698c-0.657,3.068,0.626,5.962,2.851,6.446c2.227,0.483,4.035,4.291,4.172,5.601
		c0.129,1.31-1.536,2.954-3.708,3.65c-2.176,0.695-3.164,3.715-2.204,6.696c0.95,2.981,3.52,4.846,5.688,4.147
		c2.178-0.697,4.483-0.336,5.146,0.8c0.655,1.137,1.412,5.287-0.121,6.981c-1.537,1.691-0.887,4.794,1.438,6.896
		c2.327,2.111,5.477,2.445,7.009,0.754c1.528-1.694,5.747-1.345,6.943-0.802c1.194,0.529,1.774,2.798,1.292,5.032
		c-0.48,2.228,1.632,4.6,4.692,5.252c3.063,0.658,5.962-0.624,6.442-2.845c0.482-2.236,4.29-4.043,5.604-4.175
		c1.304-0.126,2.947,1.539,3.646,3.709c0.702,2.171,3.715,3.16,6.692,2.202c2.988-0.962,4.855-3.52,4.157-5.689
		c-0.702-2.174,1.736-5.662,2.789-6.427c1.057-0.757,3.302-0.124,4.993,1.401c1.684,1.539,4.79,0.889,6.896-1.439
		c2.104-2.317,2.442-5.477,0.751-7.007c-1.694-1.532-1.346-5.755-0.81-6.95c0.542-1.191,2.802-1.768,5.038-1.288
		c2.233,0.48,4.593-1.629,5.26-4.691c0.654-3.063-0.631-5.965-2.858-6.449c-2.226-0.478-4.032-4.288-4.166-5.6
		c-0.131-1.309,1.539-2.95,3.712-3.652c2.166-0.696,3.157-3.706,2.195-6.688c-0.961-2.984-3.519-4.851-5.688-4.151
		c-2.171,0.696-5.662-1.746-6.427-2.801c-0.759-1.051-0.128-3.293,1.408-4.986c1.52-1.689,0.882-4.79-1.44-6.893
		c-2.323-2.099-5.477-2.44-7.004-0.745c-1.539,1.684-5.759,1.339-6.953,0.802c-1.18-0.541-1.768-2.805-1.292-5.038
		c0.484-2.231-1.629-4.594-4.693-5.252c-3.068-0.663-5.966,0.622-6.437,2.854c-0.489,2.225-4.303,4.035-5.606,4.162
		c-1.316,0.131-2.947-1.537-3.653-3.704c-0.694-2.176-3.71-3.163-6.689-2.205c-2.986,0.963-4.857,3.524-4.159,5.696
		c0.703,2.174-1.739,5.654-2.789,6.419c-1.058,0.761-3.293,0.129-4.986-1.399c-1.687-1.53-4.794-0.89-6.892,1.437
		C8.353,15.805,8.025,18.958,9.718,20.487z M34.935,18.887c13.07-4.206,27.069,2.975,31.271,16.049
		c4.202,13.062-2.983,27.071-16.046,31.273c-13.066,4.204-27.073-2.988-31.272-16.052C14.681,37.092,21.869,23.089,34.935,18.887z"
		/>
	<path fill="#BDBDBD" d="M52.678,52.675c-5.591,5.583-14.656,5.586-20.243,0c-5.597-5.596-5.597-14.656-0.009-20.253
		c5.596-5.589,14.661-5.589,20.252,0C58.267,38.016,58.267,47.075,52.678,52.675z"/>
	<path fill="#BDBDBD" d="M67.784,53.785L45.264,40.794V14.718h-5.351v26.008L17.33,53.767L20,58.4l22.535-13.006l22.571,13.021
		L67.784,53.785z M42.559,42.299l-0.001,0.007l-0.005-0.007H42.559L42.559,42.299z"/>
</g>
</svg>
