<?xml version="1.0" encoding="utf-8"?>
<!-- Generator: Adobe Illustrator 13.0.0, SVG Export Plug-In . SVG Version: 6.00 Build 14948)  -->
<!DOCTYPE svg PUBLIC "-//W3C//DTD SVG 1.1//EN" "http://www.w3.org/Graphics/SVG/1.1/DTD/svg11.dtd">
<svg version="1.1" id="Layer_1" xmlns="http://www.w3.org/2000/svg" xmlns:xlink="http://www.w3.org/1999/xlink" x="0px" y="0px"
	 width="85px" height="85px" viewBox="0 0 85 85" enable-background="new 0 0 85 85" xml:space="preserve">
<g>
	<path fill="#FFFFFF" d="M41.104,62.301c-1.437,0-2.605-1.156-2.605-2.604V38.092l-9.174,9.166c-1.011,1.014-2.664,1.014-3.695,0
		l-2.462-2.463c-1.013-1.012-1.013-2.663,0-3.692l17.817-17.81c0.506-0.506,1.171-0.766,1.843-0.766
		c0.661,0,1.336,0.258,1.842,0.766l17.816,17.81c1.01,1.01,1.01,2.663,0,3.692l-2.463,2.463c-1.014,1.014-2.662,1.014-3.695,0
		l-9.141-9.166v21.591c0,1.434-1.174,2.605-2.605,2.605L41.104,62.301z"/>
	<g>
		<path fill="#FFFFFF" d="M0.021,42.57c0.003-23.473,19.027-42.496,42.5-42.5l0,0v4.083v4.08C23.558,8.267,8.217,23.608,8.184,42.57
			l0,0C8.217,61.531,23.558,76.871,42.52,76.904l0,0c18.96-0.033,34.302-15.373,34.335-34.334l0,0
			C76.822,23.608,61.48,8.267,42.52,8.234l0,0v-4.08V0.07c23.474,0.003,42.498,19.027,42.501,42.5l0,0
			c-0.004,23.473-19.027,42.499-42.501,42.5l0,0C19.047,85.068,0.024,66.043,0.021,42.57L0.021,42.57z"/>
	</g>
</g>
</svg>
