<?xml version="1.0" encoding="utf-8"?>
<!-- Generator: Adobe Illustrator 13.0.0, SVG Export Plug-In . SVG Version: 6.00 Build 14948)  -->
<!DOCTYPE svg PUBLIC "-//W3C//DTD SVG 1.1//EN" "http://www.w3.org/Graphics/SVG/1.1/DTD/svg11.dtd">
<svg version="1.1" id="Layer_1" xmlns="http://www.w3.org/2000/svg" xmlns:xlink="http://www.w3.org/1999/xlink" x="0px" y="0px"
	 width="58px" height="58px" viewBox="0 0 58 58" enable-background="new 0 0 58 58" xml:space="preserve">
<path fill="#0C3058" d="M29.002,0C12.986,0,0,12.987,0,29.001C0,45.018,12.986,58,29.002,58C45.02,58,58,45.02,58,29.001
	C58,12.987,45.02,0,29.002,0z M43.613,23.155c0.014,0.313,0.02,0.628,0.02,0.944c0,9.659-7.352,20.797-20.793,20.797
	c-4.127,0-7.97-1.211-11.205-3.285c0.573,0.066,1.154,0.102,1.745,0.102c3.423,0,6.576-1.168,9.077-3.127
	c-3.198-0.061-5.897-2.173-6.829-5.075c0.446,0.087,0.905,0.132,1.377,0.132c0.667,0,1.313-0.09,1.926-0.258
	c-3.344-0.672-5.864-3.625-5.864-7.165c0-0.032,0-0.062,0.002-0.094c0.984,0.548,2.112,0.877,3.312,0.916
	c-1.964-1.313-3.254-3.548-3.254-6.083c0-1.341,0.361-2.597,0.99-3.675c3.605,4.422,8.991,7.332,15.065,7.637
	c-0.126-0.535-0.188-1.093-0.188-1.666c0-4.035,3.271-7.308,7.308-7.308c2.103,0,4.003,0.889,5.335,2.308
	c1.666-0.327,3.229-0.936,4.643-1.774c-0.547,1.708-1.704,3.14-3.215,4.043c1.479-0.176,2.89-0.57,4.199-1.15
	C46.279,20.835,45.039,22.124,43.613,23.155z"/>
</svg>
