<?xml version="1.0" encoding="utf-8"?>
<!-- Generator: Adobe Illustrator 13.0.0, SVG Export Plug-In . SVG Version: 6.00 Build 14948)  -->
<!DOCTYPE svg PUBLIC "-//W3C//DTD SVG 1.1//EN" "http://www.w3.org/Graphics/SVG/1.1/DTD/svg11.dtd">
<svg version="1.1" id="Layer_1" xmlns="http://www.w3.org/2000/svg" xmlns:xlink="http://www.w3.org/1999/xlink" x="0px" y="0px"
	 width="148px" height="85px" viewBox="0 0 148 85" enable-background="new 0 0 148 85" xml:space="preserve">
<g>
	<path fill="#FFFFFF" d="M148,10.462c0,5.777-4.734,10.457-10.57,10.457H10.568C4.729,20.919,0,16.239,0,10.462l0,0
		C0,4.684,4.729,0,10.568,0h126.855C143.266,0,148,4.684,148,10.462L148,10.462z"/>
	<path fill="#FFFFFF" d="M148,42.5c0,5.778-4.734,10.459-10.57,10.459H10.568C4.729,52.959,0,48.278,0,42.5l0,0
		c0-5.777,4.731-10.46,10.568-10.46h126.855C143.266,32.04,148,36.723,148,42.5L148,42.5z"/>
	<path fill="#FFFFFF" d="M148,74.542C148,80.317,143.266,85,137.43,85H10.568C4.729,85,0,80.317,0,74.542l0,0
		C0,68.764,4.731,64.08,10.568,64.08h126.855C143.266,64.08,148,68.764,148,74.542L148,74.542z"/>
</g>
</svg>
