<?xml version="1.0" encoding="utf-8"?>
<!-- Generator: Adobe Illustrator 13.0.0, SVG Export Plug-In . SVG Version: 6.00 Build 14948)  -->
<!DOCTYPE svg PUBLIC "-//W3C//DTD SVG 1.1//EN" "http://www.w3.org/Graphics/SVG/1.1/DTD/svg11.dtd">
<svg version="1.1" id="Layer_1" xmlns="http://www.w3.org/2000/svg" xmlns:xlink="http://www.w3.org/1999/xlink" x="0px" y="0px"
	 width="85px" height="85px" viewBox="0 0 85 85" enable-background="new 0 0 85 85" xml:space="preserve">
<g>
	<g>
		<path fill="#BDBDBD" d="M37.262,51.598c0-2.4,0.324-4.468,0.974-6.197c0.647-1.729,1.43-3.136,2.341-4.214
			c0.911-1.084,2.068-2.245,3.46-3.498c1.348-1.247,2.32-2.293,2.92-3.135c0.602-0.84,0.9-1.813,0.9-2.92
			c0-2.018-0.602-3.339-1.803-3.963c-1.201-0.626-2.787-0.937-4.759-0.937c-1.828,0-3.725,0.311-5.695,0.937
			c-1.971,0.625-3.675,1.514-5.117,2.667v-9.231c1.392-0.961,3.219-1.766,5.479-2.415c2.26-0.647,4.565-0.973,6.92-0.973
			c5.191,0,8.97,1.346,11.357,4.035c2.377,2.693,3.568,6.01,3.568,9.949c0,2.355-0.457,4.253-1.371,5.696
			c-0.912,1.443-2.281,3.004-4.107,4.688c-1.727,1.633-3.025,3.124-3.891,4.467c-0.863,1.347-1.303,3.101-1.303,5.262v0.718h-9.871
			L37.262,51.598L37.262,51.598z M36.612,66.378V57.15h11.171v9.228H36.612z"/>
	</g>
	<g>
		<path fill="#BDBDBD" d="M0.024,42.499C0.029,19.025,19.047,0,42.524,0l0,0c23.474,0,42.496,19.025,42.5,42.499l0,0
			C85.02,65.974,65.998,84.995,42.524,85l0,0C19.047,84.995,0.029,65.974,0.024,42.499L0.024,42.499z M8.933,42.499
			c0.034,18.551,15.037,33.56,33.591,33.59l0,0c18.546-0.035,33.558-15.039,33.589-33.59l0,0
			C76.078,23.951,61.07,8.941,42.524,8.911l0,0C23.973,8.941,8.967,23.951,8.933,42.499L8.933,42.499z"/>
	</g>
</g>
</svg>
