<?xml version="1.0" encoding="utf-8"?>
<!-- Generator: Adobe Illustrator 13.0.0, SVG Export Plug-In . SVG Version: 6.00 Build 14948)  -->
<!DOCTYPE svg PUBLIC "-//W3C//DTD SVG 1.1//EN" "http://www.w3.org/Graphics/SVG/1.1/DTD/svg11.dtd">
<svg version="1.1" id="Layer_1" xmlns="http://www.w3.org/2000/svg" xmlns:xlink="http://www.w3.org/1999/xlink" x="0px" y="0px"
	 width="443px" height="92px" viewBox="0 0 443 92" enable-background="new 0 0 443 92" xml:space="preserve">
<g>
	<g>
		<path fill="#FFFFFF" d="M0.393,39.152L0,38.759l0.225-0.394c2.129-0.226,3.565-0.776,4.313-1.657
			c0.747-0.879,1.12-2.387,1.12-4.522V10.617c0-1.985-0.224-3.371-0.672-4.158C4.388,5.374,3.213,4.7,1.457,4.437L1.233,4.042
			l0.336-0.393H8.01h22.125l1.176,7.414c-0.075,0.113-0.206,0.188-0.393,0.227c-0.149,0-0.299-0.019-0.447-0.058l-0.225-0.339
			c-1.271-3.668-4.276-5.501-9.018-5.501H10.924c-0.375,0-0.562,0.019-0.562,0.056v14.156h8.458c4.369,0,6.946-1.33,7.731-3.99
			c0.148-0.148,0.298-0.243,0.447-0.281l0.504,0.057v10.336l-0.896-0.169c-0.859-2.809-3.455-4.213-7.786-4.213h-8.458v11.291
			c0,1.724,0.262,2.905,0.785,3.54c0.597,0.786,1.717,1.18,3.36,1.18h6.777c5.676,0,9.484-1.985,11.426-5.955l0.225-0.28
			c0.522,0,0.802,0.075,0.84,0.226l-1.568,7.752L0.393,39.152z"/>
		<path fill="#FFFFFF" d="M58.926,15.673l-2.913,2.583l-6.218,6.797l7.954,9.718c0.299,0.337,0.971,0.992,2.017,1.966l1.009,0.785
			l1.513,0.506l0.392,0.562l-0.224,0.562H52.148l-0.336-0.393l0.224-0.394l1.399-0.394l0.505-0.562l0.056-0.281l-0.112-0.785
			l-0.672-0.955l-5.77-7.584l-5.321,6.179l-0.784,1.179l-0.224,1.181l0.056,0.562l0.729,0.953l1.177,0.395
			c0.261,0.188,0.392,0.337,0.392,0.449l-0.224,0.449h-8.907L34,38.645l0.225-0.506l2.632-0.955l2.017-1.629l7.786-8.707
			l-6.834-8.875l-2.186-2.134l-2.521-1.181l-0.392-0.505l0.224-0.562l4.985,0.168l4.984-0.168l0.336,0.505l-0.224,0.45l-0.953,0.448
			l-0.504,0.618l-0.056,0.395l0.168,0.899l0.783,1.179l4.594,5.956l4.089-4.831l1.231-1.629l0.168-1.18l-0.056-0.449l-1.681-1.292
			l-0.393-0.505l0.225-0.562l4.594,0.168l4.593-0.168l0.336,0.505l-0.224,0.45L58.926,15.673z"/>
		<path fill="#FFFFFF" d="M69.344,36.456v7.951c0,1.804,0.207,3.12,0.625,3.944c0.566,1.166,1.645,1.861,3.234,2.088l0.454,0.449
			l-0.224,0.398h-11.65l-0.225-0.396l0.28-0.449c1.456-0.227,2.464-0.938,3.023-2.139c0.373-0.824,0.561-2.118,0.561-3.881V20.345
			c0-2.4-0.653-3.712-1.96-3.938l-0.952-0.169l-0.224-0.562l0.168-0.225l6.217-2.194h0.504v5.898
			c2.726-4.082,6.162-6.123,10.307-6.123c3.323,0,6.086,1.262,8.29,3.784c2.202,2.523,3.304,5.465,3.304,8.83
			c0,3.812-1.319,7.091-3.958,9.836c-2.64,2.748-5.868,4.121-9.687,4.121C74.173,39.601,71.478,38.555,69.344,36.456z
			 M69.344,30.072c0.337,2.318,1.292,4.223,2.865,5.716c1.573,1.494,3.502,2.24,5.789,2.24c2.847,0,5.039-1.176,6.574-3.53
			c1.312-1.98,1.968-4.463,1.968-7.453c0-3.213-0.693-5.904-2.08-8.07c-1.611-2.54-3.935-3.811-6.969-3.811
			c-2.247,0-4.103,0.804-5.563,2.41c-1.274,1.382-2.137,3.25-2.586,5.604L69.344,30.072L69.344,30.072z"/>
		<path fill="#FFFFFF" d="M92.982,2.19l0.168-0.224L99.927,0h0.448v32.298c0,1.761,0.168,3.034,0.504,3.821
			c0.485,1.234,1.476,1.967,2.968,2.191l0.336,0.449l-0.224,0.393H92.588l-0.224-0.393l0.28-0.449
			c1.567-0.225,2.632-0.918,3.192-2.079c0.41-0.822,0.616-2.134,0.616-3.932V6.854c0-1.198-0.094-2.042-0.28-2.529
			c-0.299-0.787-0.953-1.254-1.96-1.405l-1.009-0.168L92.982,2.19z"/>
		<path fill="#FFFFFF" d="M133.758,26.458c0,3.895-1.373,7.097-4.117,9.604c-2.745,2.51-6.078,3.764-9.999,3.764
			s-7.226-1.234-9.915-3.706c-2.8-2.547-4.201-5.767-4.201-9.662s1.4-7.115,4.201-9.663c2.689-2.508,5.994-3.764,9.915-3.764
			s7.253,1.265,9.999,3.792C132.385,19.352,133.758,22.563,133.758,26.458z M129.052,26.458c-0.038-3.198-0.863-5.945-2.479-8.24
			c-1.804-2.597-4.245-3.895-7.326-3.895c-3.117,0-5.465,1.298-7.044,3.895c-1.352,2.182-2.009,4.928-1.972,8.24
			c0.037,3.236,0.864,5.982,2.48,8.239c1.803,2.56,4.244,3.839,7.324,3.839c3.118,0,5.465-1.3,7.043-3.896
			C128.432,32.459,129.089,29.731,129.052,26.458z"/>
		<path fill="#FFFFFF" d="M143.111,32.299c0,1.91,0.264,3.279,0.793,4.101c0.642,1.087,1.851,1.723,3.626,1.91h0.227l0.339,0.449
			l-0.279,0.393h-12.155l-0.224-0.393l0.224-0.449c1.494-0.225,2.502-0.937,3.025-2.135c0.336-0.787,0.504-2.079,0.504-3.876V20.054
			c0-2.396-0.691-3.707-2.072-3.932l-1.008-0.168l-0.225-0.562l0.168-0.226l6.386-2.19H143v7.078c2.39-4.719,5.06-7.078,8.01-7.078
			l2.688,0.898l-1.571,4.389l-1.495-0.498c-0.452-0.43-0.904-0.643-1.356-0.643c-0.453-0.143-0.886-0.214-1.3-0.214
			c-1.282,0-2.281,0.693-2.997,2.078c-0.942,1.797-1.564,3.951-1.866,6.459v6.856h-0.002V32.299z"/>
		<path fill="#FFFFFF" d="M170.837,34.884c-2.204,3.37-5.097,5.056-8.682,5.056c-2.315,0-4.221-0.487-5.713-1.461
			c-1.792-1.16-2.688-2.826-2.688-4.998c0-4.232,3.604-6.704,10.811-7.416c1.755-0.188,3.754-0.654,5.994-1.403v-3.148
			c0-4.644-2.072-6.964-6.218-6.964c-1.68,0-3.174,0.431-4.48,1.292c-1.531,0.974-2.297,2.266-2.297,3.875
			c-0.56-0.261-1.103-0.523-1.624-0.786c-0.748-0.374-1.177-0.749-1.289-1.123c0.336-1.124,1.829-2.228,4.48-3.315
			c2.428-0.973,4.331-1.46,5.713-1.46c2.913,0,5.229,0.656,6.946,1.966c1.94,1.46,2.912,3.595,2.912,6.405v11.628
			c0,3.109,0.597,4.661,1.793,4.661c0.597,0,1.101-0.168,1.512-0.505l0.168,0.563c-2.54,1.16-4.238,1.74-5.097,1.74
			c-1.232,0-1.979-1.479-2.241-4.438V34.884L170.837,34.884z M170.556,30.727v-4.831c-0.224,0.112-1.736,0.524-4.537,1.235
			c-5.266,0.448-7.898,2.453-7.898,6.011c0,1.535,0.532,2.771,1.596,3.706c1.064,0.938,2.381,1.404,3.949,1.404
			c1.94,0,3.574-0.758,4.901-2.276C169.893,34.462,170.556,32.712,170.556,30.727z"/>
		<path fill="#FFFFFF" d="M200.075,34.434c0.746,0,1.4,0.252,1.96,0.759c0.56,0.506,0.84,1.133,0.84,1.882s-0.28,1.376-0.84,1.882
			c-0.56,0.506-1.214,0.758-1.96,0.758c-0.747,0-1.4-0.252-1.96-0.758c-0.561-0.506-0.84-1.133-0.84-1.882s0.279-1.376,0.84-1.882
			C198.674,34.686,199.328,34.434,200.075,34.434z"/>
		<path fill="#FFFFFF" d="M226.68,10.617c0-1.985-0.225-3.371-0.672-4.158c-0.598-1.085-1.773-1.759-3.529-2.022l-0.223-0.395
			l0.336-0.393l6.441-0.225l11.201-0.113c6.014-0.074,10.924,1.235,14.731,3.932c4.369,3.034,6.556,7.454,6.556,13.257
			c0,5.992-2.187,10.673-6.556,14.043c-3.922,3.072-8.963,4.607-15.123,4.607h-17.7l-0.335-0.395l0.224-0.393
			c1.867-0.226,3.139-0.861,3.811-1.91c0.561-0.86,0.84-2.284,0.84-4.269V10.617H226.68z M255.975,21.15
			c0-11.216-5.918-16.731-17.756-16.543h-6.832v28.527c0,2.44,0.744,3.94,2.238,4.501c0.6,0.226,2.428,0.338,5.49,0.338
			c5.451,0,9.623-1.438,12.52-4.317C254.527,30.776,255.975,26.609,255.975,21.15z"/>
		<path fill="#FFFFFF" d="M289.693,31.176c-0.935,2.623-2.55,4.719-4.845,6.292c-2.297,1.573-4.846,2.358-7.646,2.358
			c-3.66,0-6.664-1.328-9.018-3.987c-2.279-2.546-3.418-5.693-3.418-9.438c0-3.857,1.25-7.049,3.754-9.578
			c2.5-2.528,5.655-3.792,9.465-3.792c2.612,0,5.114,0.881,7.506,2.642c2.391,1.76,3.754,3.913,4.09,6.459
			c0,0.524-0.934,0.786-2.801,0.786h-17.588c-0.076,0.6-0.111,1.405-0.111,2.416v0.448c0,3.409,0.84,6.179,2.52,8.314
			c1.83,2.322,4.406,3.484,7.732,3.484c2.053,0,3.977-0.627,5.768-1.882c1.793-1.255,3.025-2.837,3.697-4.747
			c0.188-0.075,0.354-0.094,0.504-0.057C289.451,30.933,289.582,31.026,289.693,31.176z M269.473,21.514h15.125
			c-0.188-2.209-0.916-3.978-2.186-5.309c-1.271-1.328-2.986-1.993-5.152-1.993C273.189,14.213,270.594,16.646,269.473,21.514z"/>
		<path fill="#FFFFFF" d="M311.371,31.776c0,2.59-1.119,4.635-3.361,6.136c-1.94,1.314-4.274,1.971-7,1.971
			c-2.987,0-5.771-0.6-8.346-1.797c-0.301,0-0.486,0.131-0.562,0.393h-0.446l0.393-5.729c0.148-0.188,0.281-0.281,0.394-0.281
			c0.262,0.037,0.446,0.148,0.561,0.335c0.447,1.818,1.457,3.246,3.023,4.285c1.457,1.002,3.153,1.503,5.1,1.503
			c1.717,0,3.191-0.394,4.424-1.177c1.418-0.897,2.129-2.168,2.129-3.813c0-1.569-0.748-2.896-2.239-3.979
			c-1.195-0.858-2.673-1.457-4.427-1.793c-5.752-1.083-8.625-3.568-8.625-7.455c0-2.503,1.101-4.41,3.304-5.717
			c1.793-1.083,4.032-1.626,6.723-1.626c2.764,0,5.246,0.524,7.449,1.573l-0.672,5.056c-0.148,0.076-0.3,0.113-0.447,0.113
			c-0.148-0.038-0.279-0.114-0.394-0.228c-0.262-1.664-1.084-2.97-2.465-3.916c-1.231-0.87-2.707-1.306-4.424-1.306
			c-1.457,0-2.688,0.357-3.697,1.07c-1.157,0.788-1.735,1.876-1.735,3.265c0,2.815,2.313,4.729,6.944,5.742
			c2.502,0.564,4.404,1.296,5.714,2.196C310.475,27.873,311.371,29.599,311.371,31.776z"/>
		<path fill="#FFFFFF" d="M336.912,32.357l0.729,0.225l0.113,0.337c-2.613,4.606-6.479,6.91-11.596,6.91
			c-3.732,0-6.73-1.235-8.988-3.707c-2.262-2.471-3.391-5.579-3.391-9.325c0-4.044,1.381-7.35,4.146-9.916
			c2.762-2.564,6.181-3.848,10.25-3.848c4.629,0,7.711,1.067,9.24,3.202c-0.148,0.898-0.598,1.779-1.344,2.64
			c-0.336,0.375-0.652,0.563-0.951,0.563c-0.41,0-0.82-0.337-1.232-1.013c-1.045-2.658-3.285-3.988-6.721-3.988
			c-3.025,0-5.322,1.271-6.891,3.811c-1.347,2.13-2.019,4.802-2.019,8.014c0,3.176,0.785,5.847,2.354,8.013
			c1.754,2.429,4.162,3.643,7.227,3.643c1.791,0,3.521-0.529,5.18-1.585C334.682,35.275,335.979,33.95,336.912,32.357z"/>
		<path fill="#FFFFFF" d="M365.143,13.425v18.873c0,2.921,0.484,4.608,1.457,5.055l1.681,0.059c0.037,0.11,0.057,0.225,0.057,0.336
			c-0.037,0.188-0.131,0.338-0.279,0.449l-5.153,1.236l-0.953-0.843l-0.783-4.269c-3.1,3.67-6.629,5.504-10.586,5.504
			c-2.541,0-4.574-0.73-6.105-2.191c-1.53-1.46-2.297-3.463-2.297-6.01V19.437c0-0.937-0.073-1.592-0.225-1.966
			c-0.225-0.6-0.709-1.012-1.455-1.236l-0.783-0.225l-0.672-0.505l0.277-0.395l7.002-1.685v17.021c0,2.247,0.58,4.026,1.742,5.336
			c1.162,1.311,2.85,1.966,5.061,1.966c2.139,0,3.976-0.879,5.512-2.64c1.425-1.61,2.287-3.52,2.586-5.731v-9.941
			c0-0.974-0.122-1.694-0.368-2.163c-0.246-0.468-0.806-0.814-1.679-1.04l-0.91-0.224l-0.854-0.506l0.338-0.394L365.143,13.425z"/>
		<path fill="#FFFFFF" d="M376.064,18.481c2.51-3.632,5.747-5.45,9.715-5.45c3.559,0,6.496,1.236,8.817,3.708
			c2.318,2.471,3.48,5.504,3.48,9.1c0,4.045-1.355,7.387-4.062,10.027c-2.707,2.641-6.098,3.959-10.166,3.959
			c-3.922,0-7.227-1.085-9.914-3.257l-0.84,2.304h-2.299c0.896-0.975,1.348-2.771,1.348-5.393V6.854
			c0-1.274-0.075-2.116-0.227-2.529c-0.299-0.787-0.934-1.254-1.904-1.405l-1.062-0.168l-0.226-0.562l0.168-0.224L375.562,0h0.503
			V18.481L376.064,18.481z M376.064,22.806v6.179c0,2.809,0.676,5.037,2.021,6.685c1.424,1.761,3.523,2.641,6.293,2.641
			c2.998,0,5.32-1.198,6.971-3.596c1.461-2.096,2.191-4.699,2.191-7.808c0-3.183-0.713-5.86-2.137-8.033
			c-1.648-2.546-3.99-3.82-7.025-3.82c-2.135,0-3.988,0.758-5.562,2.275C377.242,18.846,376.328,20.672,376.064,22.806z"/>
		<path fill="#FFFFFF" d="M407.096,32.299c0,1.91,0.267,3.279,0.793,4.101c0.644,1.087,1.853,1.723,3.627,1.91h0.228l0.34,0.449
			l-0.279,0.393H399.65l-0.226-0.393l0.226-0.449c1.491-0.225,2.502-0.937,3.022-2.135c0.336-0.787,0.504-2.079,0.504-3.876V20.054
			c0-2.396-0.688-3.707-2.071-3.932l-1.009-0.168l-0.225-0.562l0.168-0.226l6.387-2.19h0.562v7.078
			c2.389-4.719,5.059-7.078,8.01-7.078l2.688,0.898l-1.569,4.389l-1.496-0.498c-0.453-0.43-0.904-0.643-1.357-0.643
			c-0.453-0.143-0.885-0.214-1.299-0.214c-1.283,0-2.281,0.693-2.998,2.078c-0.94,1.797-1.562,3.951-1.865,6.459v6.856h-0.005
			V32.299z"/>
		<path fill="#FFFFFF" d="M443,31.176c-0.936,2.623-2.549,4.719-4.846,6.292c-2.295,1.573-4.847,2.358-7.646,2.358
			c-3.66,0-6.664-1.328-9.018-3.987c-2.277-2.546-3.418-5.693-3.418-9.438c0-3.857,1.252-7.049,3.754-9.578
			c2.502-2.528,5.658-3.792,9.465-3.792c2.615,0,5.117,0.881,7.506,2.642c2.391,1.76,3.754,3.913,4.09,6.459
			c0,0.524-0.934,0.786-2.801,0.786h-17.588c-0.076,0.6-0.111,1.405-0.111,2.416v0.448c0,3.409,0.84,6.179,2.521,8.314
			c1.828,2.322,4.406,3.484,7.729,3.484c2.054,0,3.978-0.627,5.771-1.882s3.022-2.837,3.694-4.747
			c0.188-0.075,0.355-0.094,0.507-0.057C442.756,30.933,442.889,31.026,443,31.176z M422.779,21.514h15.123
			c-0.188-2.209-0.914-3.978-2.185-5.309c-1.271-1.328-2.987-1.993-5.153-1.993C426.494,14.213,423.9,16.646,422.779,21.514z"/>
		<path fill="#FFFFFF" d="M112.558,56.332l-0.111-0.396l0.224-0.395h11.258l0.225,0.393l-0.112,0.396
			c-2.24,0.674-4.015,2.453-5.321,5.336L105.28,91.662c-0.411,0.225-0.766,0.338-1.064,0.338c-0.298,0-0.673-0.113-1.122-0.338
			L89.708,61.385c-1.196-2.734-2.97-4.42-5.323-5.057l-0.111-0.395l0.224-0.395h12.995l0.225,0.395l-0.111,0.396
			c-2.466,0.338-3.697,1.199-3.697,2.586c0,0.676,0.181,1.424,0.544,2.25l11.374,24.479l10.13-23.291
			c0.462-1.125,0.694-2.156,0.694-3.096C116.647,57.682,115.283,56.707,112.558,56.332z"/>
		<path fill="#FFFFFF" d="M131.827,84.189c0,1.688,0.168,2.961,0.504,3.82c0.484,1.236,1.438,1.967,2.855,2.191l0.336,0.449
			l-0.224,0.395h-11.091l-0.225-0.395l0.28-0.449c1.53-0.227,2.558-0.938,3.081-2.135c0.373-0.822,0.56-2.113,0.56-3.875V72.225
			c0-1.197-0.093-2.041-0.279-2.527c-0.3-0.785-0.952-1.254-1.96-1.402l-1.009-0.17l-0.224-0.562l0.168-0.225l6.777-2.189h0.449
			v19.041H131.827z M127.121,56.33c0-0.674,0.252-1.246,0.756-1.715c0.504-0.467,1.092-0.701,1.765-0.701
			c0.672,0,1.26,0.225,1.764,0.674c0.505,0.449,0.757,1.012,0.757,1.688c0,0.674-0.252,1.244-0.757,1.711
			c-0.504,0.471-1.092,0.703-1.764,0.703s-1.26-0.227-1.765-0.674C127.373,57.564,127.121,57.004,127.121,56.33z"/>
		<path fill="#FFFFFF" d="M160.168,71.439l-9.466,19.939c-0.3,0.189-0.542,0.283-0.729,0.283c-0.149,0-0.355-0.096-0.616-0.283
			l-10.083-21.344c-0.971-2.061-2.184-3.221-3.64-3.484l-0.394-0.506l0.225-0.561l5.152,0.168l5.098-0.168l0.336,0.504l-0.225,0.451
			c-1.307,0.188-2.109,0.541-2.408,1.064c-0.112,0.15-0.168,0.355-0.168,0.617c0,0.562,0.223,1.33,0.671,2.303l7.507,16.025
			l7.076-14.779c0.285-0.861,0.429-1.611,0.429-2.25c0-1.611-1.008-2.568-3.024-2.869l-0.392-0.504l0.224-0.562l4.313,0.168
			l4.425-0.168l0.336,0.504l-0.224,0.449C162.876,67.189,161.401,68.854,160.168,71.439z"/>
		<path fill="#FFFFFF" d="M190.358,83.066c-0.934,2.621-2.548,4.719-4.845,6.291c-2.296,1.572-4.845,2.359-7.646,2.359
			c-3.66,0-6.665-1.328-9.019-3.988c-2.278-2.547-3.417-5.691-3.417-9.438c0-3.857,1.251-7.049,3.752-9.578
			c2.501-2.527,5.657-3.791,9.466-3.791c2.613,0,5.115,0.881,7.505,2.641c2.391,1.762,3.753,3.914,4.09,6.461
			c0,0.523-0.934,0.785-2.801,0.785h-17.587c-0.075,0.6-0.111,1.404-0.111,2.416v0.447c0,3.41,0.84,6.18,2.521,8.314
			c1.829,2.32,4.406,3.482,7.73,3.482c2.053,0,3.977-0.627,5.77-1.881c1.793-1.256,3.025-2.838,3.697-4.748
			c0.187-0.074,0.354-0.094,0.504-0.055C190.115,82.824,190.247,82.918,190.358,83.066z M170.138,73.404h15.124
			c-0.188-2.207-0.916-3.979-2.185-5.309c-1.271-1.328-2.988-1.992-5.153-1.992C173.854,66.104,171.258,68.537,170.138,73.404z"/>
		<path fill="#FFFFFF" d="M215.956,62.508v22.02c0,1.725,0.262,2.904,0.784,3.541c0.597,0.785,1.718,1.18,3.36,1.18h4.816
			c5.525,0,9.447-1.648,11.764-4.943l0.783-1.125c0.113-0.072,0.205-0.111,0.281-0.111l0.223,0.059
			c0.188,0.037,0.299,0.148,0.336,0.336l-3.359,7.527l-28.23,0.057l-0.336-0.395l0.225-0.393c1.867-0.227,3.137-0.859,3.81-1.91
			c0.56-0.861,0.84-2.283,0.84-4.27V62.51c0-1.984-0.188-3.352-0.561-4.102c-0.561-1.123-1.681-1.816-3.361-2.078l-0.168-0.396
			l0.28-0.393h13.274l0.336,0.393l-0.224,0.396c-1.941,0.225-3.24,0.795-3.894,1.713C216.282,58.961,215.956,60.449,215.956,62.508z
			"/>
		<path fill="#FFFFFF" d="M267.432,78.348c0,3.896-1.371,7.098-4.117,9.605c-2.744,2.51-6.078,3.764-9.998,3.764
			s-7.225-1.234-9.914-3.707c-2.801-2.547-4.2-5.766-4.2-9.662c0-3.895,1.399-7.113,4.2-9.662c2.689-2.508,5.994-3.764,9.914-3.764
			s7.254,1.266,9.998,3.791C266.061,71.244,267.432,74.455,267.432,78.348z M262.727,78.348c-0.037-3.195-0.863-5.941-2.479-8.238
			c-1.803-2.598-4.246-3.896-7.326-3.896c-3.115,0-5.465,1.299-7.043,3.896c-1.354,2.182-2.01,4.93-1.973,8.238
			c0.037,3.238,0.863,5.982,2.479,8.24c1.803,2.561,4.244,3.838,7.326,3.838c3.117,0,5.465-1.299,7.043-3.895
			C262.107,84.35,262.764,81.623,262.727,78.348z"/>
		<path fill="#FFFFFF" d="M276.785,84.189c0,1.91,0.264,3.277,0.793,4.102c0.643,1.088,1.852,1.723,3.625,1.91h0.229l0.338,0.449
			l-0.278,0.393h-12.154l-0.223-0.393l0.223-0.449c1.494-0.227,2.502-0.938,3.024-2.135c0.337-0.787,0.505-2.078,0.505-3.877V71.945
			c0-2.396-0.691-3.707-2.072-3.934l-1.008-0.168l-0.226-0.562l0.168-0.225l6.388-2.189h0.559v7.076
			c2.392-4.719,5.062-7.076,8.01-7.076l2.689,0.896l-1.572,4.391l-1.494-0.5c-0.452-0.43-0.903-0.643-1.356-0.643
			c-0.453-0.145-0.887-0.217-1.301-0.217c-1.281,0-2.279,0.693-2.996,2.08c-0.941,1.797-1.564,3.951-1.865,6.459v6.854h-0.004
			V84.189z"/>
		<path fill="#FFFFFF" d="M312.689,83.066c-0.937,2.621-2.55,4.719-4.847,6.291s-4.846,2.359-7.646,2.359
			c-3.66,0-6.664-1.328-9.021-3.988c-2.276-2.547-3.416-5.691-3.416-9.438c0-3.857,1.252-7.049,3.754-9.578
			c2.5-2.527,5.656-3.791,9.466-3.791c2.612,0,5.114,0.881,7.506,2.641c2.391,1.762,3.752,3.914,4.09,6.461
			c0,0.523-0.935,0.785-2.801,0.785h-17.588c-0.076,0.6-0.111,1.404-0.111,2.416v0.447c0,3.41,0.84,6.18,2.52,8.314
			c1.83,2.32,4.406,3.482,7.732,3.482c2.053,0,3.977-0.627,5.768-1.881c1.793-1.256,3.025-2.838,3.697-4.748
			c0.188-0.074,0.354-0.094,0.504-0.055C312.445,82.824,312.578,82.918,312.689,83.066z M292.469,73.404h15.123
			c-0.188-2.207-0.916-3.979-2.186-5.309c-1.271-1.328-2.986-1.992-5.152-1.992C296.184,66.104,293.588,68.537,292.469,73.404z"/>
		<path fill="#FFFFFF" d="M321.539,80.91c0,5.82,1.316,8.729,3.955,8.729c0.717,0,1.375-0.484,1.979-1.459l0.396,0.561
			c-1.119,1.725-2.877,2.586-5.267,2.586c-3.323,0-4.983-2.01-4.983-6.025V68.295h-3.139c-0.148-0.074-0.224-0.166-0.224-0.279
			c0-0.111,0.074-0.223,0.224-0.334l-0.056-0.225c3-1.562,5.076-4.129,6.224-7.701h0.278c0.109-0.188,0.222-0.281,0.334-0.281
			c0.146,0,0.24,0.076,0.277,0.227v6.686h7.002l-0.621,1.91h-6.381L321.539,80.91L321.539,80.91z"/>
		<path fill="#FFFFFF" d="M358.115,78.348c0,3.896-1.373,7.098-4.117,9.605c-2.744,2.51-6.076,3.764-9.998,3.764
			s-7.227-1.234-9.914-3.707c-2.801-2.547-4.201-5.766-4.201-9.662c0-3.895,1.4-7.113,4.201-9.662
			c2.688-2.508,5.992-3.764,9.914-3.764c3.92,0,7.254,1.266,9.998,3.791C356.742,71.244,358.115,74.455,358.115,78.348z
			 M353.41,78.348c-0.039-3.195-0.863-5.941-2.479-8.238c-1.805-2.598-4.246-3.896-7.325-3.896c-3.117,0-5.466,1.299-7.046,3.896
			c-1.352,2.182-2.008,4.93-1.971,8.238c0.037,3.238,0.863,5.982,2.479,8.24c1.803,2.561,4.243,3.838,7.323,3.838
			c3.119,0,5.466-1.299,7.046-3.895C352.789,84.35,353.447,81.623,353.41,78.348z"/>
	</g>
</g>
</svg>
