<?xml version="1.0" encoding="utf-8"?>
<!-- Generator: Adobe Illustrator 13.0.0, SVG Export Plug-In . SVG Version: 6.00 Build 14948)  -->
<!DOCTYPE svg PUBLIC "-//W3C//DTD SVG 1.1//EN" "http://www.w3.org/Graphics/SVG/1.1/DTD/svg11.dtd">
<svg version="1.1" id="Layer_1" xmlns="http://www.w3.org/2000/svg" xmlns:xlink="http://www.w3.org/1999/xlink" x="0px" y="0px"
	 width="58px" height="58px" viewBox="0 0 58 58" enable-background="new 0 0 58 58" xml:space="preserve">
<path fill="#0C3058" d="M29,0C12.982,0,0,12.987,0,29c0,16.02,12.983,29,29,29c16.016,0,29-12.98,29-29C58,12.987,45.016,0,29,0z
	 M36.676,28.88h-5.021c0,8.026,0,17.909,0,17.909h-7.442c0,0,0-9.783,0-17.909h-3.539v-6.323h3.539v-4.098
	c0-2.932,1.392-7.511,7.511-7.511l5.51,0.021v6.141c0,0-3.35,0-4.002,0c-0.649,0-1.576,0.328-1.576,1.721v3.726h5.675L36.676,28.88z
	"/>
</svg>
