<?xml version="1.0" encoding="utf-8"?>
<!-- Generator: Adobe Illustrator 13.0.0, SVG Export Plug-In . SVG Version: 6.00 Build 14948)  -->
<!DOCTYPE svg PUBLIC "-//W3C//DTD SVG 1.1//EN" "http://www.w3.org/Graphics/SVG/1.1/DTD/svg11.dtd">
<svg version="1.1" id="Layer_1" xmlns="http://www.w3.org/2000/svg" xmlns:xlink="http://www.w3.org/1999/xlink" x="0px" y="0px"
	 width="85px" height="85px" viewBox="0 0 85 85" enable-background="new 0 0 85 85" xml:space="preserve">
<g>
	<path fill="#FFFFFF" d="M43.939,22.84c1.437,0,2.604,1.156,2.604,2.604v21.605l9.174-9.166c1.011-1.014,2.664-1.014,3.695,0
		l2.462,2.463c1.014,1.012,1.014,2.663,0,3.691L44.059,61.848c-0.507,0.506-1.172,0.766-1.844,0.766
		c-0.66,0-1.336-0.258-1.842-0.766L22.557,44.037c-1.01-1.01-1.01-2.662,0-3.691l2.463-2.463c1.015-1.014,2.662-1.014,3.695,0
		l9.141,9.166V25.457c0-1.434,1.174-2.604,2.605-2.604L43.939,22.84z"/>
	<g>
		<path fill="#FFFFFF" d="M85.021,42.571c-0.002,23.472-19.026,42.496-42.5,42.5l0,0v-4.082v-4.08
			c18.962-0.035,34.304-15.375,34.337-34.337l0,0C76.826,23.609,61.484,8.27,42.523,8.236l0,0
			C23.562,8.27,8.221,23.609,8.188,42.571l0,0c0.033,18.962,15.375,34.302,34.335,34.335l0,0v4.08v4.084
			c-23.474-0.003-42.498-19.027-42.501-42.5l0,0C0.025,19.098,19.049,0.072,42.523,0.07l0,0
			C65.996,0.072,85.02,19.098,85.021,42.571L85.021,42.571z"/>
	</g>
</g>
</svg>
