<?xml version="1.0" encoding="utf-8"?>
<!-- Generator: Adobe Illustrator 13.0.0, SVG Export Plug-In . SVG Version: 6.00 Build 14948)  -->
<!DOCTYPE svg PUBLIC "-//W3C//DTD SVG 1.1//EN" "http://www.w3.org/Graphics/SVG/1.1/DTD/svg11.dtd">
<svg version="1.1" id="Layer_1" xmlns="http://www.w3.org/2000/svg" xmlns:xlink="http://www.w3.org/1999/xlink" x="0px" y="0px"
	 width="83px" height="85px" viewBox="0 0 83 85" enable-background="new 0 0 83 85" xml:space="preserve">
<g>
	<path fill="#FFFFFF" d="M82.998,46.084c0,2.988-2.414,5.426-5.438,5.426H32.475l19.13,19.09c2.11,2.105,2.11,5.549,0,7.693
		l-5.139,5.125c-2.111,2.109-5.562,2.109-7.709,0L1.592,46.334c-1.053-1.055-1.594-2.438-1.594-3.836
		c0-1.38,0.541-2.778,1.594-3.832L38.759,1.582c2.111-2.108,5.56-2.108,7.709,0l5.138,5.127c2.111,2.106,2.111,5.544,0,7.693
		l-19.13,19.027h45.06c2.994,0,5.438,2.436,5.438,5.422L82.998,46.084z"/>
</g>
</svg>
