<?xml version="1.0" encoding="utf-8"?>
<!-- Generator: Adobe Illustrator 13.0.0, SVG Export Plug-In . SVG Version: 6.00 Build 14948)  -->
<!DOCTYPE svg PUBLIC "-//W3C//DTD SVG 1.1//EN" "http://www.w3.org/Graphics/SVG/1.1/DTD/svg11.dtd">
<svg version="1.1" id="Layer_1" xmlns="http://www.w3.org/2000/svg" xmlns:xlink="http://www.w3.org/1999/xlink" x="0px" y="0px"
	 width="337px" height="350px" viewBox="0 0 337 350" enable-background="new 0 0 337 350" xml:space="preserve">
<g>
	<path fill="#FFFFFF" d="M12.153,136.747c8.065-16.027,15.946-30.19,25.131-41.037c6.061,11.892,12.234,18.82,23.129,17.911
		c-2.75-3.01-3.829-4.316-4.983-5.736c-1.052-8.278,0.159-19.956,4.295-29.77c3.997-9.394,9.276-15.617,12.025-15.23
		c2.731,0.408,2.097,7.122,3.953,15.424l5.188,12.925c0.747,4.317-1.269,7.35-0.873,11.79c0.692,7.689,4.997,15.129,7.283,3.85
		c1.371-6.724,3.308-14.946,4.883-20.16c6.23-20.49,13.321-27.202,18.271-25.42c2.922,1.079,4.157,5.509,6.874,11.347
		c4.215,9.132,10.386,21.682,19.48,30.133c5.617,5.191,10.908,8.065,17.159,7.962c2.188-0.034,4.464-0.125,6.933-1.033
		c4.599-1.658,8.063-6.746,13.025-5.214c4.79,1.477,7.088,13.756,12.255,16.662c5.867,3.261,14.701-3.043,22.27-5.656
		c-5.778-0.125-11.185,0.296-16.677-1.522c-1.913-2.42-4.382-4.202-6.091-7.18c-5.018-8.688-9.073-18.513-16.854-12.72
		c-2.674,1.976-5.256,6.395-8.527,7.224c-7.182,1.771-15.564-0.897-24.117-14.981L123.128,64.69
		c-6.492-17.696-10.84-22.205-14.24-20.683c-6.307,5.043-12.185,12.028-16.705,21.717c-2.197,4.76-4.305,16.322-5.526,16.719
		c-4.338,1.397-7.284-11.108-8.767-18.14c-1.484-7.144-1.903-16.287-4.734-17.082c-1.007-0.307-2.074-0.239-2.854,0.466
		c-4.507,3.964-7.406,8.61-10.08,13.936c-3.659,7.282-6.569,15.436-8.574,23.433c-1.574,6.326-2.072,13.958-2.174,14.004
		c-1.416,0.432-2.989-0.545-4.837-3.476c-1.042-1.692-2.039-3.838-3.002-5.803c-0.952-1.988-0.146-3.214-1.495-4.157
		c-1.641-1.091-2.538-0.852-4.236,1.124C29.652,94.017,16.661,118.551,12.153,136.747"/>
	<path fill="#FFFFFF" d="M256.698,73.186l-0.025,7.508l-6.012-0.035l0.918,5.35h4.722v24.012h-16.436
		c-2.536-7.077-15.322-11.768-20.783,0.193l-20.399,0.205l0.374,26.214l6.775-5.532v-14.56h16.966
		c0.352-0.648,0.272-1.909,0.531-2.704c1.529-4.771,6.942-5.702,10.127-3.227c1.401,1.057,2.13,3.01,2.321,5.202
		c0.021,0.25-0.047,0.512,0.103,0.728h26.627V85.623h23.684v71.419l6.503-6.702V85.623l3.373-0.103l1.971-4.566l-5.434-0.034
		l-0.048-7.644c-0.439-6.52-5.901-11.074-12.356-12.756c0.034-3.782-0.183-5.145-4.226-5.974l-0.012-3.464l-0.032-3.021h4.688V44.96
		h-4.688l-0.022-6.1h-3.375v6.066h-4.419l0.021,3.054l4.396,0.08v6.428c-1.476,0.239-2.729,0.943-3.422,1.897
		c-0.611,0.818-0.728,1.874-0.839,2.362l-0.293,1.42c-0.014,0.112-0.104,0.226-0.283,0.26
		C262.032,62.054,257.592,66.428,256.698,73.186 M286.395,73.322l-0.012,7.564l-23.876-0.148v-7.417
		C266.279,65.314,278.453,61.589,286.395,73.322 M271.182,60.237c0.409-0.727,0.434-1.431,0.852-1.886
		c1.687-1.759,3.806-1.407,5.152,0.353c0.311,0.397,0.311,0.988,0.611,1.533H271.182"/>
	<path fill="#FFFFFF" d="M270.502,112.099V98.026c0-3.623,6.027-4.247,6.016,0.102l-0.032,16.175h3.94l0.192-16.48
		c0.112-9.779-13.863-9.904-13.909,0v17.025L270.502,112.099z"/>
	<path fill="#FFFFFF" d="M12.719,170.399l-2.616,5.986c23.016,0.012,50.267,1.816,54.524-6.178
		c2.378-7.134-5.335-10.109-14.782-10.552c3.806-2.249,29.868-3.431,59.055-5.327c17.952-1.147,36.085-1.477,53.991-1.58
		c1.384,0,1.313-2.93,0.137-2.93c-24.147,0.08-55.667-0.84-86.351,1.715c-9.243,0.783-18.599,0.942-27.343,3.101
		c-8.504,2.113-12.095,5.419-9.944,7.632c3.127,3.227,8.701,1.92,12.663,2.182c6.536,0.476,7.183,3.543,3.591,4.452
		c-7.429,1.897-30.422,1.511-35.938,1.783C16.967,170.797,14.577,170.39,12.719,170.399"/>
	<path fill="#FFFFFF" d="M7.735,191.855l-2.015,6.227c33.288,0,106.183-0.719,112.333-12.303c2.718-2.693-1.767-6.508-7.34-7.406
		c-4.871-0.795-9.513-1.977-13.785-2.93c-3.305-0.749-6.32-1.181-9.627-2.442c-5.039-1.954,1.734-2.668,4.227-3.204
		c9.229-2.02,27.034-3.52,58.716-5.474c22.936-1.386,46.042-0.591,68.977-0.966c1.065,0,8.008-4.44,4.621-4.44
		c-32.506-0.092-57.807-2.147-100.113,1.362c-13.354,1.125-25.269,1.171-37.886,4.305c-9.241,2.284-10.612,6.168-9.062,9.313
		c1.313,2.681,3.397,3.396,6.115,4.08c7.365,1.908,23.142,4.338,11.882,7.225C69.77,191.605,33.878,191.787,7.735,191.855"/>
	<path fill="#FFFFFF" d="M295.014,201.92c-13.271,1.031-46.902,2.75-75.581,3.293c-5.116,0.08-9.604-0.271-13.975-0.217
		c-8.972,0.092-16.97,0.422-25.087-0.326c-15.633-1.48-25.427-5.297-24.93-10.26c0.28-2.781,2.538-9.916,14.01-11.619
		c0.644-0.104,6.309-0.895,11.654-0.986c1.474-0.021,2.772-0.092,4.133,0.033c1.652,0.158,3.18,0.533,3.056,0.566
		c-4.632,1.295-10.439,2.045-13.547,3.033c-7.235,2.283-9.308,5.826-7.755,8.438c1.121,1.896,4.111,2.307,7.724,3.59
		c1.571,0.545,7.725,1.156,18.007,1.395c17.174,0.365,42.895,0.795,54.491,1.125C283.901,201.033,298.49,201.646,295.014,201.92"/>
	<path fill="#FFFFFF" d="M193.372,0.698c-1.812,2.646-1.928,6.327-2.57,9.52c-0.977,4.667-1.948,8.848-1.495,12.016
		c0.362,2.477,2.398,2.216,4.043,1.715c2.178-0.681,4.77-1.147,4.795-3.702C198.267,1.959,195.059-1.766,193.372,0.698"/>
	<path fill="#FFFFFF" d="M161.578,29.787c1.519,2.259,4.315,3.407,6.617,4.872c3.331,2.125,5.447,3.6,8.007,4.134
		c2.038,0.409,5.106-2.759,5.201-4.247c0.101-2,0.154-3.589-1.839-4.317C165.464,24.891,160.164,27.696,161.578,29.787"/>
	<path fill="#FFFFFF" d="M226.57,18.031c-2.277,0.033-5.11,2.283-7.817,3.351c-1.632,0.625-3.318,0.432-4.508,1.499
		c-2.183,2-2.502,3.886-1.992,7.054c0.372,2.34,2.549,5.748,4.543,4.236c4.464-3.396,7.044-6.938,8.856-9.256
		C229.604,19.801,228.573,17.985,226.57,18.031"/>
	<path fill="#FFFFFF" d="M164.887,69.268c0.316-3.214,2.582-6.065,4.123-8.927c2.242-4.169,4.01-6.02,6.344-8.099
		c1.857-1.636,2.719,1.034,3.635,2.521c1.2,1.977,3.533,4.623,1.913,6.576c-3.983,4.771-7.316,7.042-9.763,8.507
		C166.517,72.629,164.694,71.243,164.887,69.268"/>
	<path fill="#FFFFFF" d="M203.544,81.342c1.076-2.646,0.418-7.667-0.045-9.894c-0.421-2.088-0.513-4.634-1.439-5.872
		c-3.284-4.486-9.206-2.909-8.269,0.818C198.344,84.26,202.5,83.953,203.544,81.342"/>
	<path fill="#FFFFFF" d="M224.927,57.557c-3.081-3.565-5.788-6.849-8.495-8.336c-2.15-1.169-3.159,0.715-3.727,2.363
		c-0.76,2.226-1.924,4.645,0.057,6.189c6.229,4.761,10.028,5.826,12.823,6.44C234.85,66.292,227.045,60.021,224.927,57.557"/>
	<path fill="#FFFFFF" d="M183.314,48.824l4.018,5.996c2.106,3.135,9.345,1.692,12.305,1.09c7.587-1.556,11.323-10.54,8.208-19.274
		c-0.453-1.261-0.351-2.703-1.098-3.997c-2.88-5.204-8.282-8.44-7.361-3.863c0.35,1.794,2.354,4.486,4.812,9.121
		c1.664,3.169,0.316,7.064-2.039,10.415c-3.081,2.262-9.604,4.544-12.241-1.987c-1.688-4.191,3.25-6.258,3.067-8.201
		c-0.44-4.453-5.55-3.749-8.223-0.647C182.104,40.566,181.707,45.597,183.314,48.824"/>
	<path fill="#FFFFFF" d="M197.291,191.537c12.55-6.871,25.279-13.834,34.953-24.611c2.515-2.795,3.502-4.736,4.801-6.611
		c5.097-7.27,4.338-7.45,17.873,2.783c12.381,11.972,26.401,19.966,40.765,27.191c17.726-16.991,17.315-11.277,37.716,4.828
		c-18.348-25.135-16.229-33.586-38.947-13.518c-15.315-5.771-29.188-14.722-39.891-30.688c-2.811-2.158-10.979-9.87-15.406-6.043
		C205.864,173.354,190.847,191.311,197.291,191.537"/>
	<path fill="#FFFFFF" d="M56.473,277.496l-4.35,14.641l-52.124-0.17l0.737-4.383h2.229c1.451,0,2.899,0.057,4.34,0.057
		c1.21,0,1.802-4.283,2.129-5.691c0.283-1.281,0.475-2.688,0.657-4.145l4.915-40.99c0.419-3.568,0.941-5.748,0.737-6.623
		c-0.184-0.908-0.771-1.67-1.755-2.34c-0.977-0.646-2.391-1-4.28-1H7.485l0.917-4.021h33.356l-0.929,4.021h-2.924
		c-1.959,0-3.579,0.363-4.916,1.08c-0.917,0.477-1.767,1.295-2.492,2.465c-0.52,0.795-1.392,2.906-1.799,6.418l-4.431,39.615
		c-0.408,3.578-0.928,5.793-0.714,6.746c0.204,1.002,0.816,1.74,1.893,2.191c0.77,0.318,2.729,0.455,5.9,0.455h5.573
		c6.953,0,7.711,0.953,13.081-5.654c0.974-1.172,1.947-2.578,2.967-4.248l0.104-0.172L56.473,277.496z"/>
	<path fill="#FFFFFF" d="M73.632,263.924c-1.088,6.938,0.386,13.287,2.763,17.332c2.39,4.064,6.14,6.088,11.293,6.088
		c5.073,0,9.286-2.303,13.093-6.191c5.29-5.438,6.398-11.459,6.647-17.285c0.715-16.096-13.286-29.578-26.684-15.834
		C76.894,251.963,74.617,257.449,73.632,263.924 M60.629,264.254c0.792-3.896,2.302-7.637,4.485-11.135
		c2.187-3.521,4.95-6.621,8.336-9.357c7.609-6.154,13.071-7.189,22.37-7.189c4.155,0,7.848,0.684,11.086,2.012
		c3.22,1.316,6.051,3.309,8.417,5.949c2.446,2.811,4.089,6.021,4.961,9.682c0.905,3.654,1.384,5.902,0.589,9.768
		c-0.839,4.215-2.334,8.076-4.472,11.584c-2.144,3.512-4.917,6.658-8.327,9.498c-3.454,2.838-7.133,5.008-11.1,6.484
		c-3.94,1.453-8.074,2.168-12.346,2.168c-4.314,0-8.086-0.729-11.349-2.213c-3.25-1.488-6.025-3.693-8.358-6.666
		c-2.208-2.898-3.67-6.092-4.384-9.557C59.814,271.795,59.837,268.125,60.629,264.254"/>
	<path fill="#FFFFFF" d="M148.938,236.244l-3.918,16.287c2.719-4.02,6.15-10.348,10.839-13.391
		c5.449-3.566,14.635-4.816,17.841-0.613l-3.138,5.576l-3.137,6.791l-3.297-0.715c-0.25-0.068,0.125-1,0.169-1.283
		c0.59-3.01,1.676-4.635-2.72-4.578c-13.047,0.08-16.717,24.104-17.928,33.02c-0.43,3.057-0.17,5.482,0.375,7.043
		c0.34,1.104,0.905,1.895,2.073,2.609c1.188,0.705,4.314,1.33,6.714,1.33l-0.486,3.109l-30.763,0.229l0.533-3.102
		c2.707,0,4.804-0.453,6.229-1.34c1.054-0.646,1.666-0.693,2.22-2.125c0.295-0.684,0.656-2.637,1.1-5.871l2.911-21.391
		c0.884-6.428,1.28-10.244,1.19-11.479c-0.08-1.23-0.432-2.113-1.032-2.684c-0.588-0.547-1.404-0.83-2.411-0.83
		c-1.201,0-4.191,0.066-5.812,0.658l-0.282-4.062l13.863-1.795L148.938,236.244z"/>
	<path fill="#FFFFFF" d="M227.997,259.799l-40.912-0.238c-6.001,23.137,17.3,35.234,35.362,16.742l4.1,3.76
		c-3.839,5.566-7.283,6.691-11.714,9.021c-4.37,2.295-9.373,3.48-15.016,3.48c-9.639,0-16.764-2.871-21.418-8.629
		c-3.714-4.646-5.369-10.383-4.971-17.242c0.498-8.416,3.986-14.924,9.989-20.102C200.769,231.631,228.122,231.598,227.997,259.799
		 M215.673,254.779c-0.045-0.795,0.136-1.688,0.282-2.688c2.39-16.688-25.971-9.371-28.103,2.918L215.673,254.779z"/>
	<path fill="#FFFFFF" d="M284.593,263.924c-1.088,6.938,0.386,13.287,2.752,17.332c2.391,4.064,6.151,6.088,11.28,6.088
		c5.096,0,9.323-2.303,13.127-6.191c5.269-5.438,6.389-11.459,6.663-17.285c0.699-16.096-13.333-29.578-26.708-15.834
		C287.845,251.963,285.568,257.449,284.593,263.924 M271.591,264.254c0.792-3.896,2.3-7.637,4.486-11.135
		c2.183-3.521,4.97-6.621,8.333-9.357c7.613-6.154,13.068-7.189,22.392-7.189c4.134,0,7.814,0.684,11.056,2.012
		c3.217,1.316,6.048,3.309,8.428,5.949c2.445,2.811,4.075,6.021,4.961,9.682c0.904,3.654,1.392,5.902,0.61,9.768
		c-0.873,4.215-2.354,8.076-4.497,11.584c-2.131,3.512-4.902,6.658-8.348,9.498c-3.43,2.838-7.124,5.008-11.064,6.484
		c-3.953,1.453-8.079,2.168-12.347,2.168c-4.34,0-8.111-0.729-11.339-2.213c-3.297-1.488-6.07-3.693-8.371-6.666
		c-2.231-2.898-3.679-6.092-4.394-9.557C270.774,271.795,270.81,268.125,271.591,264.254"/>
	<path fill="#FFFFFF" d="M255.02,238.061l13.311-0.137l-0.693,5.43h-12.718l-4.302,27.111c-0.578,4.01-0.578,7.732-0.067,10.541
		c0.521,2.748,2.796,3.814,4.656,4.18c2.675,0.535,6.307-1.307,8.402-3.998l3.477,3.816c-3.78,7.053-14.102,9.586-20.284,7.744
		c-7.104-2.076-10.577-9.402-9.492-17.398l4.304-31.996h-5.777l0.703-4.771l5.797,0.014l0.432-11.086l14.031-2.578L255.02,238.061z"
		/>
	<path fill="#FFFFFF" d="M0.125,315.988c110.395-2.477,218.776-2.477,323.374,2.25L337,305.641
		C207.188,301.961,97.428,306.447,0.125,315.988"/>
	<g>
		<path fill="#FFFFFF" d="M18.968,342.803c0,0.666-0.133,1.262-0.398,1.787c-0.271,0.523-0.636,0.957-1.104,1.303
			c-0.542,0.408-1.136,0.697-1.786,0.871c-0.646,0.172-1.471,0.258-2.468,0.258H7.214v-13.775h5.333c1.108,0,1.917,0.037,2.43,0.109
			c0.516,0.074,1.023,0.236,1.528,0.49c0.523,0.268,0.912,0.621,1.167,1.066c0.255,0.447,0.383,0.957,0.383,1.531
			c0,0.666-0.176,1.254-0.524,1.764c-0.353,0.51-0.849,0.904-1.485,1.188v0.074c0.898,0.18,1.61,0.549,2.138,1.109
			C18.705,341.145,18.968,341.885,18.968,342.803z M14.428,337.141c0-0.229-0.056-0.457-0.17-0.686s-0.314-0.396-0.603-0.51
			c-0.261-0.1-0.58-0.15-0.966-0.162c-0.386-0.008-0.925-0.016-1.619-0.016h-0.332v2.916h0.555c0.559,0,1.037-0.01,1.43-0.025
			c0.396-0.021,0.705-0.08,0.935-0.188c0.316-0.143,0.526-0.326,0.627-0.551C14.38,337.697,14.428,337.438,14.428,337.141z
			 M15.287,342.746c0-0.438-0.083-0.773-0.253-1.016c-0.168-0.234-0.456-0.412-0.861-0.529c-0.275-0.08-0.657-0.123-1.142-0.131
			c-0.485-0.006-0.991-0.01-1.521-0.01h-0.772v3.436h0.259c0.995,0,1.706-0.004,2.136-0.01c0.43-0.008,0.826-0.088,1.188-0.24
			c0.366-0.154,0.622-0.359,0.759-0.615C15.218,343.375,15.287,343.08,15.287,342.746z"/>
		<path fill="#FFFFFF" d="M33.376,347.021h-3.658l-0.957-2.781h-5.083l-0.957,2.781h-3.569l5.073-13.773h4.078L33.376,347.021z
			 M27.909,341.711l-1.69-4.938l-1.689,4.938H27.909z"/>
		<path fill="#FFFFFF" d="M41.565,342.979c0,0.605-0.106,1.172-0.321,1.699c-0.217,0.525-0.535,0.971-0.959,1.336
			c-0.45,0.391-0.991,0.688-1.626,0.9c-0.634,0.215-1.417,0.318-2.353,0.318c-0.633,0-1.229-0.021-1.789-0.068
			c-0.561-0.045-1.053-0.111-1.476-0.197v-2.785h0.332c0.295,0.111,0.603,0.215,0.923,0.312c0.319,0.096,0.729,0.145,1.227,0.145
			c0.646,0,1.142-0.086,1.49-0.26s0.596-0.414,0.743-0.725c0.142-0.303,0.221-0.635,0.237-0.994c0.02-0.361,0.028-0.822,0.028-1.387
			v-5.494h-3.146v-2.531h6.688L41.565,342.979L41.565,342.979z"/>
		<path fill="#FFFFFF" d="M56.646,347.021h-3.658l-0.957-2.781h-5.083l-0.957,2.781H42.42l5.075-13.773h4.078L56.646,347.021z
			 M51.179,341.711l-1.689-4.938l-1.689,4.938H51.179z"/>
		<path fill="#FFFFFF" d="M69.418,347.289c-1.021,0-1.964-0.15-2.828-0.453s-1.606-0.752-2.229-1.352
			c-0.621-0.6-1.102-1.346-1.443-2.238c-0.341-0.895-0.512-1.928-0.512-3.102c0-1.092,0.164-2.082,0.49-2.971
			c0.325-0.889,0.799-1.648,1.42-2.285c0.597-0.609,1.336-1.082,2.221-1.414c0.883-0.334,1.847-0.5,2.891-0.5
			c0.579,0,1.102,0.031,1.564,0.1c0.464,0.062,0.893,0.146,1.287,0.254c0.412,0.115,0.786,0.248,1.122,0.395
			c0.335,0.145,0.628,0.279,0.881,0.402v3.34h-0.406c-0.172-0.148-0.389-0.322-0.648-0.525c-0.264-0.201-0.56-0.398-0.892-0.598
			c-0.338-0.197-0.705-0.363-1.098-0.498c-0.396-0.135-0.815-0.203-1.267-0.203c-0.499,0-0.972,0.08-1.421,0.236
			s-0.863,0.418-1.245,0.779c-0.362,0.352-0.656,0.814-0.881,1.396c-0.227,0.578-0.337,1.279-0.337,2.104
			c0,0.859,0.122,1.582,0.363,2.16c0.244,0.576,0.55,1.033,0.919,1.365c0.375,0.338,0.793,0.58,1.255,0.727
			c0.461,0.146,0.916,0.219,1.366,0.219c0.43,0,0.854-0.064,1.275-0.193s0.811-0.305,1.167-0.523c0.303-0.18,0.581-0.367,0.841-0.57
			c0.258-0.203,0.47-0.377,0.637-0.525h0.369v3.295c-0.346,0.154-0.674,0.301-0.987,0.438c-0.312,0.135-0.643,0.252-0.986,0.352
			c-0.448,0.131-0.871,0.229-1.265,0.297C70.649,347.256,70.108,347.289,69.418,347.289z"/>
		<path fill="#FFFFFF" d="M88.653,347.021h-3.658l-0.957-2.781h-5.085l-0.957,2.781h-3.57l5.076-13.773h4.078L88.653,347.021z
			 M83.185,341.711l-1.688-4.938l-1.69,4.938H83.185z"/>
		<path fill="#FFFFFF" d="M99.591,347.021h-9.908v-13.775h3.542v11.109h6.366V347.021L99.591,347.021z"/>
		<path fill="#FFFFFF" d="M108.205,347.021h-8.046v-2.439h2.251v-8.895h-2.251v-2.439h8.046v2.439h-2.253v8.895h2.253V347.021z"/>
		<path fill="#FFFFFF" d="M120.012,335.91h-6.319v2.562h5.857v2.664h-5.857v5.885h-3.525v-13.773h9.845V335.91z"/>
		<path fill="#FFFFFF" d="M134.872,340.139c0,2.195-0.629,3.939-1.883,5.232c-1.255,1.291-2.99,1.938-5.205,1.938
			c-2.208,0-3.939-0.646-5.194-1.938c-1.254-1.293-1.882-3.037-1.882-5.232c0-2.215,0.627-3.965,1.882-5.252
			c1.255-1.285,2.986-1.928,5.194-1.928c2.203,0,3.934,0.643,5.195,1.928C134.239,336.174,134.872,337.924,134.872,340.139z
			 M130.175,343.627c0.347-0.42,0.603-0.914,0.768-1.486c0.167-0.568,0.25-1.24,0.25-2.012c0-0.826-0.097-1.529-0.287-2.109
			s-0.44-1.049-0.748-1.404c-0.312-0.371-0.675-0.641-1.083-0.807c-0.409-0.168-0.834-0.25-1.279-0.25
			c-0.449,0-0.872,0.08-1.267,0.24c-0.397,0.16-0.764,0.426-1.096,0.795c-0.308,0.346-0.558,0.822-0.752,1.43
			c-0.191,0.609-0.291,1.314-0.291,2.115c0,0.82,0.094,1.52,0.281,2.096c0.188,0.576,0.437,1.049,0.743,1.41
			c0.307,0.365,0.667,0.635,1.08,0.809s0.845,0.26,1.301,0.26s0.891-0.09,1.302-0.266
			C129.508,344.27,129.867,343.996,130.175,343.627z"/>
		<path fill="#FFFFFF" d="M149.86,347.021h-4.326l-3.738-5.051h-1.641v5.051h-3.524v-13.775h5.941c0.81,0,1.51,0.047,2.094,0.139
			c0.584,0.094,1.133,0.293,1.643,0.602c0.517,0.312,0.928,0.709,1.229,1.197c0.306,0.492,0.457,1.107,0.457,1.848
			c0,1.02-0.233,1.85-0.706,2.488c-0.47,0.643-1.142,1.174-2.015,1.602L149.86,347.021z M144.333,337.465
			c0-0.348-0.069-0.643-0.212-0.891c-0.141-0.246-0.385-0.439-0.728-0.582c-0.24-0.102-0.52-0.158-0.841-0.182
			c-0.317-0.021-0.689-0.031-1.114-0.031h-1.282v3.711h1.089c0.562,0,1.039-0.027,1.42-0.084s0.701-0.184,0.959-0.381
			c0.247-0.188,0.426-0.4,0.54-0.635C144.277,338.164,144.333,337.854,144.333,337.465z"/>
		<path fill="#FFFFFF" d="M162.958,347.021h-3.416l-5.831-9.455v9.455h-3.247v-13.775h4.235l5.008,7.893v-7.893h3.249
			L162.958,347.021L162.958,347.021z"/>
		<path fill="#FFFFFF" d="M172.965,347.021h-8.043v-2.439h2.251v-8.895h-2.251v-2.439h8.043v2.439h-2.25v8.895h2.25V347.021z"/>
		<path fill="#FFFFFF" d="M187.622,347.021h-3.659l-0.955-2.781h-5.085l-0.958,2.781h-3.568l5.074-13.773h4.077L187.622,347.021z
			 M182.154,341.711l-1.689-4.938l-1.689,4.938H182.154z"/>
		<path fill="#FFFFFF" d="M205.184,342.691c0,1.357-0.574,2.461-1.722,3.311s-2.705,1.271-4.675,1.271
			c-1.138,0-2.129-0.102-2.974-0.301c-0.847-0.201-1.641-0.455-2.378-0.764v-3.305h0.39c0.729,0.586,1.552,1.035,2.46,1.354
			c0.907,0.312,1.779,0.471,2.615,0.471c0.216,0,0.498-0.018,0.849-0.055c0.354-0.037,0.638-0.1,0.858-0.188
			c0.271-0.109,0.492-0.25,0.668-0.416s0.264-0.412,0.264-0.74c0-0.303-0.127-0.561-0.382-0.781
			c-0.257-0.219-0.629-0.387-1.122-0.504c-0.516-0.123-1.062-0.238-1.638-0.35c-0.574-0.105-1.115-0.244-1.62-0.41
			c-1.156-0.375-1.988-0.889-2.494-1.529c-0.511-0.646-0.764-1.445-0.764-2.402c0-1.281,0.571-2.33,1.722-3.141
			c1.146-0.812,2.623-1.217,4.424-1.217c0.906,0,1.801,0.088,2.682,0.264c0.882,0.176,1.646,0.396,2.292,0.662v3.174h-0.378
			c-0.554-0.445-1.231-0.814-2.034-1.115c-0.804-0.299-1.622-0.447-2.457-0.447c-0.298,0-0.593,0.021-0.885,0.061
			c-0.292,0.041-0.572,0.115-0.846,0.227c-0.239,0.096-0.445,0.234-0.617,0.424c-0.171,0.188-0.259,0.4-0.259,0.645
			c0,0.363,0.138,0.643,0.417,0.838c0.275,0.193,0.798,0.371,1.567,0.531c0.504,0.104,0.987,0.205,1.452,0.305
			c0.466,0.1,0.965,0.234,1.5,0.408c1.052,0.346,1.827,0.812,2.33,1.408C204.932,340.969,205.184,341.742,205.184,342.691z"/>
		<path fill="#FFFFFF" d="M218.694,342.035c0,1.703-0.517,3.008-1.551,3.914c-1.031,0.904-2.555,1.357-4.565,1.357
			s-3.531-0.453-4.562-1.357c-1.029-0.906-1.546-2.209-1.546-3.904v-8.799h3.562v8.596c0,0.957,0.2,1.668,0.599,2.137
			c0.401,0.473,1.05,0.705,1.947,0.705c0.886,0,1.532-0.227,1.94-0.676c0.409-0.451,0.615-1.172,0.615-2.166v-8.596h3.56
			L218.694,342.035L218.694,342.035z"/>
		<path fill="#FFFFFF" d="M234.293,347.021h-4.327l-3.735-5.051h-1.643v5.051h-3.525v-13.775h5.941c0.812,0,1.514,0.047,2.098,0.139
			c0.584,0.094,1.131,0.293,1.642,0.602c0.52,0.312,0.929,0.709,1.231,1.197c0.305,0.492,0.456,1.107,0.456,1.848
			c0,1.02-0.235,1.85-0.705,2.488c-0.472,0.643-1.143,1.174-2.015,1.602L234.293,347.021z M228.767,337.465
			c0-0.348-0.069-0.643-0.212-0.891c-0.143-0.246-0.386-0.439-0.729-0.582c-0.24-0.102-0.521-0.158-0.84-0.182
			c-0.32-0.021-0.693-0.031-1.115-0.031h-1.283v3.711h1.088c0.567,0,1.04-0.027,1.424-0.084c0.383-0.057,0.699-0.184,0.958-0.381
			c0.247-0.188,0.428-0.4,0.541-0.635C228.71,338.164,228.767,337.854,228.767,337.465z"/>
		<path fill="#FFFFFF" d="M249.962,332.625l-7.317,17.393h-2.832l7.287-17.393H249.962z"/>
		<path fill="#FFFFFF" d="M272.449,347.021h-3.524v-9.225l-2.546,5.986h-2.446l-2.545-5.986v9.225h-3.342v-13.775h4.116l3.091,6.91
			l3.08-6.91h4.116V347.021L272.449,347.021z"/>
		<path fill="#FFFFFF" d="M284.967,347.021h-9.938v-13.775h9.938v2.664h-6.414v2.379h5.951v2.664h-5.951v3.402h6.414V347.021z
			 M283.407,328.064v0.188l-3.248,3.449h-2.27l2.278-3.637H283.407L283.407,328.064z"/>
		<path fill="#FFFFFF" d="M299.446,347.021h-4.101l-2.954-4.52l-3.015,4.52h-3.918l4.874-6.938l-4.771-6.836h4.091l2.855,4.287
			l2.938-4.287h3.926l-4.791,6.688L299.446,347.021z"/>
		<path fill="#FFFFFF" d="M307.923,347.021h-8.042v-2.439h2.251v-8.895h-2.251v-2.439h8.042v2.439h-2.251v8.895h2.251V347.021z"/>
		<path fill="#FFFFFF" d="M316.097,347.289c-1.021,0-1.966-0.15-2.83-0.453c-0.861-0.303-1.605-0.752-2.228-1.352
			c-0.621-0.6-1.102-1.346-1.443-2.238c-0.343-0.895-0.512-1.928-0.512-3.102c0-1.092,0.161-2.082,0.488-2.971
			c0.324-0.889,0.799-1.648,1.422-2.285c0.596-0.609,1.336-1.082,2.218-1.414c0.885-0.334,1.849-0.5,2.892-0.5
			c0.579,0,1.103,0.031,1.566,0.1c0.463,0.062,0.892,0.146,1.287,0.254c0.411,0.115,0.784,0.248,1.119,0.395
			c0.335,0.145,0.629,0.279,0.883,0.402v3.34h-0.407c-0.171-0.148-0.39-0.322-0.647-0.525c-0.264-0.201-0.56-0.398-0.893-0.598
			c-0.339-0.197-0.705-0.363-1.099-0.498c-0.396-0.135-0.814-0.203-1.267-0.203c-0.499,0-0.972,0.08-1.422,0.236
			c-0.446,0.156-0.861,0.418-1.244,0.779c-0.363,0.352-0.657,0.814-0.882,1.396c-0.227,0.578-0.337,1.279-0.337,2.104
			c0,0.859,0.122,1.582,0.362,2.16c0.243,0.576,0.551,1.033,0.921,1.365c0.374,0.338,0.792,0.58,1.254,0.727
			s0.917,0.219,1.365,0.219c0.432,0,0.854-0.064,1.277-0.193c0.423-0.129,0.81-0.305,1.166-0.523c0.304-0.18,0.582-0.367,0.842-0.57
			c0.259-0.203,0.471-0.377,0.637-0.525h0.37v3.295c-0.345,0.154-0.674,0.301-0.987,0.438c-0.312,0.135-0.643,0.252-0.986,0.352
			c-0.448,0.131-0.871,0.229-1.265,0.297C317.325,347.256,316.783,347.289,316.097,347.289z"/>
		<path fill="#FFFFFF" d="M335.993,340.139c0,2.195-0.627,3.939-1.883,5.232c-1.257,1.291-2.989,1.938-5.205,1.938
			c-2.209,0-3.938-0.646-5.196-1.938c-1.253-1.293-1.88-3.037-1.88-5.232c0-2.215,0.627-3.965,1.88-5.252
			c1.259-1.285,2.987-1.928,5.196-1.928c2.202,0,3.934,0.643,5.192,1.928C335.362,336.174,335.993,337.924,335.993,340.139z
			 M331.296,343.627c0.345-0.42,0.602-0.914,0.767-1.486c0.166-0.568,0.248-1.24,0.248-2.012c0-0.826-0.095-1.529-0.285-2.109
			c-0.188-0.58-0.438-1.049-0.746-1.404c-0.313-0.371-0.676-0.641-1.084-0.807c-0.409-0.168-0.836-0.25-1.275-0.25
			c-0.45,0-0.873,0.08-1.271,0.24c-0.396,0.16-0.762,0.426-1.093,0.795c-0.31,0.346-0.562,0.822-0.752,1.43
			c-0.193,0.609-0.294,1.314-0.294,2.115c0,0.82,0.097,1.52,0.282,2.096c0.188,0.576,0.438,1.049,0.742,1.41
			c0.31,0.365,0.668,0.635,1.08,0.809c0.411,0.174,0.848,0.26,1.302,0.26c0.453,0,0.89-0.09,1.303-0.266
			C330.628,344.27,330.988,343.996,331.296,343.627z"/>
	</g>
</g>
</svg>
