<?xml version="1.0" encoding="utf-8"?>
<!-- Generator: Adobe Illustrator 13.0.0, SVG Export Plug-In . SVG Version: 6.00 Build 14948)  -->
<!DOCTYPE svg PUBLIC "-//W3C//DTD SVG 1.1//EN" "http://www.w3.org/Graphics/SVG/1.1/DTD/svg11.dtd">
<svg version="1.1" id="Layer_1" xmlns="http://www.w3.org/2000/svg" xmlns:xlink="http://www.w3.org/1999/xlink" x="0px" y="0px"
	 width="337px" height="350px" viewBox="0 0 337 350" enable-background="new 0 0 337 350" xml:space="preserve">
<g>
	
		<linearGradient id="SVGID_1_" gradientUnits="userSpaceOnUse" x1="490.4385" y1="-68.1577" x2="346.5388" y2="256.8596" gradientTransform="matrix(1 0 0 1 -320.5 57.5)">
		<stop  offset="0" style="stop-color:#CED326"/>
		<stop  offset="1" style="stop-color:#2FCBD8"/>
	</linearGradient>
	<path fill="url(#SVGID_1_)" d="M12.154,136.752c8.063-16.028,15.947-30.19,25.132-41.037c6.06,11.892,12.233,18.82,23.129,17.911
		c-2.751-3.009-3.828-4.315-4.983-5.736c-1.053-8.278,0.16-19.955,4.293-29.769c3.998-9.394,9.277-15.617,12.027-15.229
		c2.732,0.407,2.096,7.121,3.953,15.424l5.188,12.925c0.747,4.317-1.271,7.35-0.874,11.79c0.691,7.689,4.997,15.128,7.283,3.85
		c1.371-6.724,3.307-14.947,4.882-20.161c6.231-20.489,13.322-27.202,18.27-25.419c2.923,1.078,4.158,5.509,6.876,11.346
		c4.214,9.133,10.385,21.684,19.48,30.133c5.617,5.191,10.906,8.066,17.159,7.962c2.188-0.034,4.462-0.125,6.932-1.032
		c4.599-1.66,8.064-6.747,13.022-5.214c4.791,1.477,7.092,13.756,12.256,16.662c5.869,3.26,14.701-3.043,22.269-5.656
		c-5.775-0.125-11.181,0.295-16.675-1.522c-1.911-2.42-4.383-4.202-6.09-7.18c-5.018-8.688-9.071-18.513-16.856-12.719
		c-2.672,1.977-5.255,6.395-8.526,7.224c-7.182,1.771-15.564-0.897-24.116-14.981l-13.057-21.626
		c-6.492-17.694-10.84-22.205-14.24-20.683c-6.307,5.044-12.185,12.028-16.705,21.716c-2.197,4.76-4.304,16.322-5.527,16.719
		c-4.337,1.397-7.283-11.107-8.766-18.139c-1.486-7.144-1.904-16.288-4.734-17.083c-1.009-0.307-2.075-0.239-2.856,0.466
		c-4.507,3.965-7.406,8.61-10.08,13.936c-3.658,7.282-6.568,15.436-8.574,23.433c-1.575,6.325-2.071,13.959-2.173,14.004
		c-1.418,0.433-2.991-0.543-4.838-3.476c-1.042-1.691-2.039-3.839-3.001-5.803c-0.953-1.988-0.145-3.214-1.496-4.157
		c-1.641-1.091-2.537-0.852-4.236,1.125C29.653,94.022,16.662,118.557,12.154,136.752"/>
	
		<linearGradient id="SVGID_2_" gradientUnits="userSpaceOnUse" x1="605.9346" y1="-16.8877" x2="462.0101" y2="308.1858" gradientTransform="matrix(1 0 0 1 -320.5 57.5)">
		<stop  offset="0" style="stop-color:#CED326"/>
		<stop  offset="1" style="stop-color:#2FCBD8"/>
	</linearGradient>
	<path fill="url(#SVGID_2_)" d="M256.699,73.192l-0.025,7.508l-6.014-0.036l0.918,5.35h4.723v24.011h-16.434
		c-2.537-7.076-15.326-11.768-20.783,0.194l-20.402,0.206l0.377,26.213l6.773-5.532v-14.56h16.967
		c0.351-0.647,0.271-1.908,0.531-2.704c1.527-4.771,6.943-5.702,10.125-3.227c1.406,1.057,2.131,3.011,2.324,5.202
		c0.02,0.25-0.045,0.512,0.104,0.728h26.627V85.629h23.683v71.417l6.5-6.701V85.627l3.377-0.103l1.971-4.567l-5.436-0.034
		l-0.048-7.644c-0.438-6.519-5.899-11.074-12.354-12.755c0.033-3.782-0.182-5.145-4.225-5.974l-0.013-3.464l-0.031-3.021h4.688
		v-3.101h-4.688l-0.022-6.1h-3.375v6.065h-4.42l0.022,3.054l4.396,0.082v6.427c-1.475,0.239-2.73,0.943-3.42,1.897
		c-0.611,0.818-0.728,1.875-0.84,2.363l-0.293,1.421c-0.011,0.112-0.104,0.225-0.285,0.26
		C262.031,62.06,257.592,66.434,256.699,73.192 M286.395,73.327l-0.01,7.564l-23.877-0.147v-7.417
		C266.279,65.32,278.455,61.595,286.395,73.327 M271.182,60.243c0.41-0.727,0.433-1.431,0.853-1.886
		c1.686-1.759,3.807-1.407,5.153,0.353c0.308,0.397,0.308,0.988,0.609,1.533H271.182"/>
	
		<linearGradient id="SVGID_3_" gradientUnits="userSpaceOnUse" x1="619.8896" y1="-10.6865" x2="475.9256" y2="314.4767" gradientTransform="matrix(1 0 0 1 -320.5 57.5)">
		<stop  offset="0" style="stop-color:#CED326"/>
		<stop  offset="1" style="stop-color:#2FCBD8"/>
	</linearGradient>
	<path fill="url(#SVGID_3_)" d="M270.504,112.104V98.031c0-3.624,6.025-4.247,6.014,0.102l-0.032,16.176h3.938l0.193-16.481
		c0.113-9.779-13.863-9.904-13.908,0v17.026L270.504,112.104z"/>
	
		<linearGradient id="SVGID_4_" gradientUnits="userSpaceOnUse" x1="485.6523" y1="-69.957" x2="341.9113" y2="254.7021" gradientTransform="matrix(1 0 0 1 -320.5 57.5)">
		<stop  offset="0" style="stop-color:#CED326"/>
		<stop  offset="1" style="stop-color:#2FCBD8"/>
	</linearGradient>
	<path fill="url(#SVGID_4_)" d="M12.72,170.405l-2.616,5.988c23.015,0.012,50.266,1.816,54.524-6.18
		c2.378-7.134-5.333-10.108-14.781-10.552c3.808-2.249,29.868-3.429,59.056-5.326c17.953-1.147,36.085-1.478,53.992-1.581
		c1.383,0,1.312-2.929,0.137-2.929c-24.148,0.08-55.667-0.841-86.353,1.714c-9.241,0.784-18.597,0.943-27.34,3.099
		c-8.507,2.114-12.097,5.42-9.946,7.633c3.127,3.227,8.7,1.922,12.664,2.182c6.537,0.476,7.182,3.543,3.59,4.452
		c-7.429,1.897-30.422,1.512-35.938,1.783C16.968,170.803,14.578,170.394,12.72,170.405"/>
	
		<linearGradient id="SVGID_5_" gradientUnits="userSpaceOnUse" x1="514.3867" y1="-57.1919" x2="370.6472" y2="267.464" gradientTransform="matrix(1 0 0 1 -320.5 57.5)">
		<stop  offset="0" style="stop-color:#CED326"/>
		<stop  offset="1" style="stop-color:#2FCBD8"/>
	</linearGradient>
	<path fill="url(#SVGID_5_)" d="M7.737,191.861l-2.017,6.225c33.289,0,106.183-0.717,112.333-12.301
		c2.716-2.691-1.766-6.51-7.34-7.404c-4.871-0.795-9.513-1.977-13.785-2.932c-3.306-0.748-6.32-1.182-9.627-2.442
		c-5.039-1.954,1.734-2.668,4.226-3.203c9.229-2.021,27.035-3.52,58.715-5.475c22.933-1.384,46.042-0.591,68.976-0.965
		c1.062,0,8.008-4.44,4.621-4.44c-32.508-0.093-57.81-2.148-100.113,1.361c-13.354,1.125-25.268,1.171-37.886,4.305
		c-9.241,2.283-10.612,6.168-9.062,9.313c1.312,2.681,3.398,3.398,6.115,4.08c7.363,1.906,23.141,4.336,11.883,7.225
		C69.77,191.611,33.878,191.793,7.737,191.861"/>
	
		<linearGradient id="SVGID_6_" gradientUnits="userSpaceOnUse" x1="613.7158" y1="-12.9678" x2="470.1015" y2="311.4052" gradientTransform="matrix(1 0 0 1 -320.5 57.5)">
		<stop  offset="0" style="stop-color:#CED326"/>
		<stop  offset="1" style="stop-color:#2FCBD8"/>
	</linearGradient>
	<path fill="url(#SVGID_6_)" d="M295.014,201.924c-13.274,1.033-46.903,2.752-75.582,3.295c-5.116,0.08-9.602-0.271-13.977-0.217
		c-8.967,0.09-16.965,0.422-25.084-0.326c-15.632-1.48-25.426-5.297-24.929-10.26c0.282-2.781,2.538-9.916,14.011-11.619
		c0.643-0.104,6.309-0.896,11.652-0.986c1.475-0.021,2.774-0.09,4.137,0.033c1.651,0.158,3.182,0.533,3.057,0.568
		c-4.633,1.293-10.44,2.043-13.547,3.031c-7.235,2.281-9.309,5.826-7.757,8.439c1.121,1.896,4.11,2.305,7.724,3.588
		c1.574,0.547,7.726,1.156,18.008,1.398c17.171,0.363,42.894,0.791,54.49,1.123C283.904,201.037,298.492,201.652,295.014,201.924"/>
	
		<linearGradient id="SVGID_7_" gradientUnits="userSpaceOnUse" x1="519.8926" y1="-55.0864" x2="375.8966" y2="270.1484" gradientTransform="matrix(1 0 0 1 -320.5 57.5)">
		<stop  offset="0" style="stop-color:#CED326"/>
		<stop  offset="1" style="stop-color:#2FCBD8"/>
	</linearGradient>
	<path fill="url(#SVGID_7_)" d="M193.373,0.704c-1.811,2.646-1.926,6.327-2.572,9.52c-0.977,4.667-1.947,8.847-1.494,12.015
		c0.363,2.477,2.402,2.215,4.043,1.714c2.177-0.682,4.769-1.147,4.791-3.704C198.266,1.964,195.059-1.76,193.373,0.704"/>
	
		<linearGradient id="SVGID_8_" gradientUnits="userSpaceOnUse" x1="507.3662" y1="-60.6162" x2="363.4643" y2="264.4066" gradientTransform="matrix(1 0 0 1 -320.5 57.5)">
		<stop  offset="0" style="stop-color:#CED326"/>
		<stop  offset="1" style="stop-color:#2FCBD8"/>
	</linearGradient>
	<path fill="url(#SVGID_8_)" d="M161.579,29.793c1.519,2.26,4.315,3.407,6.614,4.872c3.33,2.126,5.448,3.601,8.01,4.134
		c2.037,0.408,5.106-2.759,5.197-4.247c0.104-2,0.159-3.59-1.834-4.317C165.464,24.896,160.164,27.703,161.579,29.793"/>
	
		<linearGradient id="SVGID_9_" gradientUnits="userSpaceOnUse" x1="544.9961" y1="-43.9287" x2="401.0719" y2="281.1441" gradientTransform="matrix(1 0 0 1 -320.5 57.5)">
		<stop  offset="0" style="stop-color:#CED326"/>
		<stop  offset="1" style="stop-color:#2FCBD8"/>
	</linearGradient>
	<path fill="url(#SVGID_9_)" d="M226.57,18.038c-2.277,0.032-5.109,2.283-7.816,3.35c-1.631,0.625-3.318,0.432-4.508,1.498
		c-2.186,2-2.504,3.885-1.992,7.054c0.371,2.34,2.547,5.748,4.541,4.237c4.463-3.395,7.047-6.939,8.857-9.256
		C229.604,19.808,228.574,17.991,226.57,18.038"/>
	
		<linearGradient id="SVGID_10_" gradientUnits="userSpaceOnUse" x1="520.8477" y1="-54.6533" x2="376.8981" y2="270.4767" gradientTransform="matrix(1 0 0 1 -320.5 57.5)">
		<stop  offset="0" style="stop-color:#CED326"/>
		<stop  offset="1" style="stop-color:#2FCBD8"/>
	</linearGradient>
	<path fill="url(#SVGID_10_)" d="M164.888,69.273c0.316-3.214,2.583-6.065,4.124-8.928c2.24-4.17,4.011-6.021,6.342-8.098
		c1.857-1.636,2.718,1.034,3.638,2.521c1.199,1.977,3.531,4.622,1.912,6.576c-3.984,4.771-7.314,7.043-9.765,8.508
		C166.518,72.635,164.694,71.25,164.888,69.273"/>
	
		<linearGradient id="SVGID_11_" gradientUnits="userSpaceOnUse" x1="545.4541" y1="-43.772" x2="401.404" y2="281.5852" gradientTransform="matrix(1 0 0 1 -320.5 57.5)">
		<stop  offset="0" style="stop-color:#CED326"/>
		<stop  offset="1" style="stop-color:#2FCBD8"/>
	</linearGradient>
	<path fill="url(#SVGID_11_)" d="M203.543,81.347c1.078-2.647,0.42-7.667-0.043-9.893c-0.422-2.089-0.512-4.634-1.438-5.872
		c-3.287-4.486-9.212-2.909-8.271,0.818C198.344,84.264,202.498,83.959,203.543,81.347"/>
	
		<linearGradient id="SVGID_12_" gradientUnits="userSpaceOnUse" x1="558.7344" y1="-37.8755" x2="414.6507" y2="287.5579" gradientTransform="matrix(1 0 0 1 -320.5 57.5)">
		<stop  offset="0" style="stop-color:#CED326"/>
		<stop  offset="1" style="stop-color:#2FCBD8"/>
	</linearGradient>
	<path fill="url(#SVGID_12_)" d="M224.926,57.563c-3.08-3.565-5.787-6.849-8.492-8.336c-2.151-1.169-3.161,0.714-3.729,2.362
		c-0.758,2.226-1.922,4.646,0.059,6.191c6.229,4.76,10.025,5.825,12.822,6.441C234.85,66.297,227.045,60.026,224.926,57.563"/>
	
		<linearGradient id="SVGID_13_" gradientUnits="userSpaceOnUse" x1="532.1992" y1="-49.6201" x2="388.2309" y2="275.5523" gradientTransform="matrix(1 0 0 1 -320.5 57.5)">
		<stop  offset="0" style="stop-color:#CED326"/>
		<stop  offset="1" style="stop-color:#2FCBD8"/>
	</linearGradient>
	<path fill="url(#SVGID_13_)" d="M183.316,48.829l4.02,5.997c2.104,3.134,9.344,1.691,12.301,1.088
		c7.588-1.554,11.326-10.54,8.211-19.273c-0.453-1.261-0.352-2.703-1.1-3.998c-2.877-5.204-8.279-8.439-7.363-3.861
		c0.354,1.795,2.355,4.486,4.812,9.12c1.668,3.17,0.317,7.064-2.037,10.416c-3.08,2.261-9.604,4.544-12.242-1.988
		c-1.688-4.19,3.25-6.257,3.066-8.201c-0.438-4.452-5.547-3.749-8.224-0.646C182.102,40.571,181.707,45.602,183.316,48.829"/>
	
		<linearGradient id="SVGID_14_" gradientUnits="userSpaceOnUse" x1="644.5801" y1="0.5039" x2="500.8387" y2="325.1641" gradientTransform="matrix(1 0 0 1 -320.5 57.5)">
		<stop  offset="0" style="stop-color:#CED326"/>
		<stop  offset="1" style="stop-color:#2FCBD8"/>
	</linearGradient>
	<path fill="url(#SVGID_14_)" d="M197.291,191.545c12.549-6.875,25.279-13.836,34.953-24.615c2.518-2.795,3.5-4.736,4.801-6.611
		c5.1-7.27,4.342-7.451,17.875,2.782c12.379,11.971,26.4,19.965,40.76,27.19c17.728-16.989,17.32-11.275,37.718,4.828
		c-18.347-25.134-16.23-33.585-38.949-13.516c-15.314-5.77-29.188-14.722-39.892-30.688c-2.809-2.158-10.975-9.87-15.405-6.042
		C205.865,173.359,190.848,191.314,197.291,191.545"/>
	
		<linearGradient id="SVGID_15_" gradientUnits="userSpaceOnUse" x1="472.9121" y1="-75.9053" x2="328.9692" y2="249.2101" gradientTransform="matrix(1 0 0 1 -320.5 57.5)">
		<stop  offset="0" style="stop-color:#CED326"/>
		<stop  offset="1" style="stop-color:#2FCBD8"/>
	</linearGradient>
	<path fill="url(#SVGID_15_)" d="M56.474,277.502l-4.351,14.639l-52.124-0.17l0.737-4.381h2.23c1.451,0,2.898,0.055,4.338,0.055
		c1.21,0,1.802-4.283,2.128-5.693c0.285-1.279,0.477-2.689,0.658-4.145l4.916-40.99c0.418-3.568,0.941-5.746,0.735-6.621
		c-0.182-0.91-0.771-1.672-1.755-2.34c-0.976-0.648-2.391-1.002-4.28-1.002H7.485l0.917-4.021H41.76l-0.929,4.021h-2.923
		c-1.96,0-3.581,0.363-4.917,1.082c-0.917,0.477-1.767,1.293-2.491,2.465c-0.52,0.793-1.395,2.904-1.8,6.416l-4.431,39.615
		c-0.408,3.578-0.929,5.793-0.714,6.746c0.203,1.002,0.815,1.742,1.893,2.191c0.77,0.318,2.729,0.455,5.9,0.455h5.572
		c6.954,0,7.712,0.955,13.082-5.654c0.975-1.172,1.948-2.58,2.968-4.248l0.103-0.17L56.474,277.502z"/>
	
		<linearGradient id="SVGID_16_" gradientUnits="userSpaceOnUse" x1="525.9697" y1="-52.3223" x2="382.034" y2="272.7768" gradientTransform="matrix(1 0 0 1 -320.5 57.5)">
		<stop  offset="0" style="stop-color:#CED326"/>
		<stop  offset="1" style="stop-color:#2FCBD8"/>
	</linearGradient>
	<path fill="url(#SVGID_16_)" d="M73.633,263.928c-1.088,6.941,0.385,13.289,2.764,17.334c2.391,4.064,6.139,6.088,11.291,6.088
		c5.075,0,9.288-2.303,13.093-6.195c5.292-5.438,6.4-11.455,6.647-17.285c0.715-16.094-13.287-29.574-26.684-15.83
		C76.895,251.969,74.618,257.453,73.633,263.928 M60.629,264.258c0.792-3.896,2.3-7.635,4.486-11.133
		c2.186-3.52,4.95-6.619,8.335-9.357c7.609-6.152,13.071-7.191,22.371-7.191c4.155,0,7.848,0.684,11.086,2.014
		c3.219,1.316,6.05,3.305,8.416,5.949c2.444,2.807,4.089,6.02,4.962,9.678c0.905,3.656,1.381,5.904,0.588,9.768
		c-0.838,4.215-2.334,8.076-4.474,11.586c-2.143,3.51-4.915,6.654-8.325,9.494c-3.454,2.84-7.135,5.01-11.1,6.488
		c-3.94,1.451-8.076,2.166-12.347,2.166c-4.312,0-8.086-0.727-11.349-2.215c-3.249-1.486-6.025-3.691-8.357-6.664
		c-2.208-2.898-3.669-6.09-4.386-9.555C59.815,271.801,59.839,268.131,60.629,264.258"/>
	
		<linearGradient id="SVGID_17_" gradientUnits="userSpaceOnUse" x1="566.9287" y1="-34.1055" x2="423.0079" y2="290.9597" gradientTransform="matrix(1 0 0 1 -320.5 57.5)">
		<stop  offset="0" style="stop-color:#CED326"/>
		<stop  offset="1" style="stop-color:#2FCBD8"/>
	</linearGradient>
	<path fill="url(#SVGID_17_)" d="M148.939,236.248l-3.92,16.289c2.721-4.021,6.151-10.35,10.84-13.393
		c5.448-3.566,14.635-4.816,17.84-0.611l-3.14,5.576l-3.136,6.791l-3.298-0.715c-0.25-0.07,0.125-1.002,0.17-1.285
		c0.59-3.008,1.678-4.633-2.718-4.578c-13.046,0.082-16.716,24.105-17.929,33.021c-0.43,3.055-0.17,5.484,0.374,7.043
		c0.341,1.102,0.906,1.895,2.073,2.609c1.188,0.705,4.314,1.33,6.716,1.33l-0.488,3.111l-30.759,0.229l0.53-3.104
		c2.707,0,4.805-0.455,6.229-1.34c1.054-0.646,1.666-0.691,2.221-2.125c0.295-0.684,0.655-2.637,1.1-5.871l2.91-21.387
		c0.884-6.43,1.28-10.244,1.189-11.482c-0.08-1.229-0.43-2.113-1.031-2.684c-0.588-0.543-1.406-0.828-2.412-0.828
		c-1.2,0-4.191,0.068-5.812,0.658l-0.282-4.066l13.861-1.793L148.939,236.248z"/>
	
		<linearGradient id="SVGID_18_" gradientUnits="userSpaceOnUse" x1="619.7568" y1="-10.7031" x2="475.8152" y2="314.4095" gradientTransform="matrix(1 0 0 1 -320.5 57.5)">
		<stop  offset="0" style="stop-color:#CED326"/>
		<stop  offset="1" style="stop-color:#2FCBD8"/>
	</linearGradient>
	<path fill="url(#SVGID_18_)" d="M227.996,259.805l-40.91-0.236c-6.004,23.135,17.295,35.23,35.359,16.74l4.1,3.758
		c-3.838,5.568-7.281,6.693-11.711,9.023c-4.369,2.293-9.379,3.48-15.018,3.48c-9.638,0-16.763-2.871-21.416-8.631
		c-3.716-4.643-5.369-10.381-4.974-17.238c0.498-8.418,3.984-14.926,9.988-20.105C200.771,231.637,228.121,231.604,227.996,259.805
		 M215.674,254.785c-0.045-0.795,0.135-1.689,0.283-2.689c2.391-16.688-25.973-9.371-28.1,2.918L215.674,254.785z"/>
	
		<linearGradient id="SVGID_19_" gradientUnits="userSpaceOnUse" x1="702.2832" y1="25.9336" x2="558.3435" y2="351.0414" gradientTransform="matrix(1 0 0 1 -320.5 57.5)">
		<stop  offset="0" style="stop-color:#CED326"/>
		<stop  offset="1" style="stop-color:#2FCBD8"/>
	</linearGradient>
	<path fill="url(#SVGID_19_)" d="M284.592,263.928c-1.086,6.941,0.392,13.289,2.754,17.334c2.392,4.064,6.15,6.088,11.283,6.088
		c5.096,0,9.32-2.303,13.125-6.195c5.266-5.438,6.389-11.455,6.66-17.285c0.701-16.094-13.33-29.574-26.707-15.83
		C287.844,251.969,285.568,257.453,284.592,263.928 M271.592,264.258c0.793-3.896,2.299-7.635,4.486-11.133
		c2.184-3.52,4.971-6.619,8.334-9.357c7.611-6.152,13.07-7.191,22.391-7.191c4.135,0,7.816,0.684,11.058,2.014
		c3.215,1.316,6.049,3.305,8.426,5.949c2.449,2.807,4.076,6.02,4.963,9.678c0.9,3.656,1.389,5.904,0.609,9.768
		c-0.873,4.215-2.355,8.076-4.496,11.586c-2.133,3.51-4.904,6.654-8.349,9.494c-3.43,2.84-7.123,5.01-11.063,6.488
		c-3.953,1.451-8.078,2.166-12.347,2.166c-4.338,0-8.108-0.727-11.338-2.215c-3.297-1.486-6.067-3.691-8.371-6.664
		c-2.229-2.898-3.682-6.09-4.393-9.555C270.775,271.801,270.809,268.131,271.592,264.258"/>
	
		<linearGradient id="SVGID_20_" gradientUnits="userSpaceOnUse" x1="659.6982" y1="6.9233" x2="515.694" y2="332.1768" gradientTransform="matrix(1 0 0 1 -320.5 57.5)">
		<stop  offset="0" style="stop-color:#CED326"/>
		<stop  offset="1" style="stop-color:#2FCBD8"/>
	</linearGradient>
	<path fill="url(#SVGID_20_)" d="M255.021,238.064l13.307-0.135l-0.691,5.43H254.92l-4.305,27.111
		c-0.578,4.008-0.578,7.736-0.068,10.541c0.523,2.75,2.799,3.814,4.658,4.18c2.672,0.535,6.305-1.307,8.402-4l3.477,3.818
		c-3.783,7.053-14.104,9.586-20.285,7.742c-7.104-2.074-10.576-9.402-9.49-17.396l4.306-31.998h-5.779l0.703-4.77l5.801,0.01
		l0.431-11.084l14.034-2.578L255.021,238.064z"/>
	
		<linearGradient id="SVGID_21_" gradientUnits="userSpaceOnUse" x1="607.9814" y1="-15.2729" x2="464.3293" y2="309.1855" gradientTransform="matrix(1 0 0 1 -320.5 57.5)">
		<stop  offset="0" style="stop-color:#CED326"/>
		<stop  offset="1" style="stop-color:#2FCBD8"/>
	</linearGradient>
	<path fill="url(#SVGID_21_)" d="M0.126,315.994c110.396-2.477,218.774-2.477,323.374,2.248l13.5-12.598
		C207.189,301.965,97.429,306.451,0.126,315.994"/>
	<g>
		
			<linearGradient id="SVGID_22_" gradientUnits="userSpaceOnUse" x1="488.502" y1="-68.9141" x2="344.5742" y2="256.1667" gradientTransform="matrix(1 0 0 1 -320.5 57.5)">
			<stop  offset="0" style="stop-color:#CED326"/>
			<stop  offset="1" style="stop-color:#2FCBD8"/>
		</linearGradient>
		<path fill="url(#SVGID_22_)" d="M18.969,342.807c0,0.666-0.136,1.264-0.401,1.787c-0.269,0.521-0.637,0.959-1.104,1.303
			c-0.542,0.408-1.136,0.699-1.785,0.871c-0.647,0.174-1.472,0.26-2.469,0.26H7.213v-13.775h5.333c1.105,0,1.917,0.035,2.431,0.109
			c0.515,0.076,1.023,0.236,1.527,0.49c0.523,0.266,0.913,0.619,1.166,1.064c0.255,0.451,0.383,0.959,0.383,1.533
			c0,0.666-0.175,1.256-0.524,1.764c-0.354,0.508-0.848,0.902-1.486,1.188v0.074c0.897,0.182,1.61,0.551,2.135,1.113
			C18.707,341.148,18.969,341.889,18.969,342.807z M14.429,337.145c0-0.23-0.056-0.455-0.171-0.686
			c-0.114-0.229-0.315-0.396-0.604-0.51c-0.258-0.098-0.58-0.152-0.964-0.16c-0.386-0.012-0.924-0.016-1.62-0.016h-0.333v2.914
			h0.555c0.559,0,1.038-0.008,1.429-0.025c0.396-0.02,0.705-0.08,0.934-0.188c0.318-0.145,0.526-0.322,0.627-0.549
			C14.38,337.701,14.429,337.443,14.429,337.145z M15.287,342.752c0-0.438-0.083-0.775-0.252-1.014
			c-0.169-0.236-0.456-0.414-0.86-0.533c-0.276-0.078-0.657-0.123-1.142-0.129s-0.992-0.01-1.521-0.01H10.74v3.434h0.258
			c0.995,0,1.705-0.004,2.136-0.008c0.431-0.008,0.825-0.088,1.188-0.242c0.368-0.152,0.622-0.357,0.76-0.615
			C15.219,343.381,15.287,343.086,15.287,342.752z"/>
		
			<linearGradient id="SVGID_23_" gradientUnits="userSpaceOnUse" x1="502.2334" y1="-62.7812" x2="358.3199" y2="262.2677" gradientTransform="matrix(1 0 0 1 -320.5 57.5)">
			<stop  offset="0" style="stop-color:#CED326"/>
			<stop  offset="1" style="stop-color:#2FCBD8"/>
		</linearGradient>
		<path fill="url(#SVGID_23_)" d="M33.377,347.027h-3.659l-0.956-2.785h-5.085l-0.957,2.785h-3.568l5.074-13.775h4.077
			L33.377,347.027z M27.909,341.717l-1.689-4.936l-1.69,4.936H27.909z"/>
		
			<linearGradient id="SVGID_24_" gradientUnits="userSpaceOnUse" x1="509.5527" y1="-59.5615" x2="365.628" y2="265.5123" gradientTransform="matrix(1 0 0 1 -320.5 57.5)">
			<stop  offset="0" style="stop-color:#CED326"/>
			<stop  offset="1" style="stop-color:#2FCBD8"/>
		</linearGradient>
		<path fill="url(#SVGID_24_)" d="M41.566,342.984c0,0.604-0.107,1.17-0.322,1.697c-0.216,0.527-0.538,0.971-0.96,1.336
			c-0.449,0.391-0.991,0.688-1.625,0.904c-0.635,0.211-1.417,0.316-2.354,0.316c-0.633,0-1.229-0.021-1.79-0.068
			c-0.56-0.043-1.052-0.111-1.477-0.199v-2.785h0.333c0.296,0.111,0.603,0.215,0.923,0.312c0.319,0.096,0.729,0.145,1.227,0.145
			c0.646,0,1.145-0.086,1.491-0.26c0.348-0.174,0.595-0.414,0.743-0.725c0.143-0.303,0.222-0.633,0.24-0.992
			c0.019-0.363,0.027-0.826,0.027-1.387v-5.494h-3.146v-2.531h6.688V342.984L41.566,342.984z"/>
		
			<linearGradient id="SVGID_25_" gradientUnits="userSpaceOnUse" x1="521.6963" y1="-54.1807" x2="377.7697" y2="270.8976" gradientTransform="matrix(1 0 0 1 -320.5 57.5)">
			<stop  offset="0" style="stop-color:#CED326"/>
			<stop  offset="1" style="stop-color:#2FCBD8"/>
		</linearGradient>
		<path fill="url(#SVGID_25_)" d="M56.647,347.027h-3.659l-0.957-2.785h-5.083l-0.957,2.785H42.42l5.074-13.775h4.08L56.647,347.027
			z M51.18,341.717l-1.688-4.936l-1.69,4.936H51.18z"/>
		
			<linearGradient id="SVGID_26_" gradientUnits="userSpaceOnUse" x1="536.0762" y1="-47.8628" x2="392.1249" y2="277.2715" gradientTransform="matrix(1 0 0 1 -320.5 57.5)">
			<stop  offset="0" style="stop-color:#CED326"/>
			<stop  offset="1" style="stop-color:#2FCBD8"/>
		</linearGradient>
		<path fill="url(#SVGID_26_)" d="M69.42,347.295c-1.021,0-1.964-0.15-2.829-0.453c-0.864-0.303-1.606-0.75-2.229-1.35
			c-0.619-0.604-1.102-1.348-1.442-2.24s-0.513-1.928-0.513-3.102c0-1.092,0.163-2.08,0.489-2.971
			c0.325-0.889,0.799-1.648,1.42-2.283c0.598-0.611,1.337-1.084,2.219-1.416c0.883-0.332,1.847-0.5,2.892-0.5
			c0.578,0,1.101,0.031,1.563,0.098c0.465,0.066,0.894,0.15,1.288,0.254c0.412,0.117,0.787,0.25,1.121,0.395
			c0.335,0.146,0.628,0.279,0.881,0.402v3.34h-0.405c-0.172-0.146-0.388-0.32-0.651-0.521c-0.262-0.205-0.558-0.404-0.89-0.602
			c-0.337-0.193-0.704-0.361-1.098-0.496c-0.396-0.135-0.816-0.203-1.266-0.203c-0.498,0-0.971,0.08-1.421,0.236
			c-0.448,0.154-0.862,0.416-1.245,0.781c-0.364,0.348-0.656,0.812-0.88,1.395c-0.225,0.574-0.337,1.277-0.337,2.104
			c0,0.861,0.121,1.582,0.365,2.162c0.243,0.576,0.549,1.033,0.918,1.367c0.375,0.336,0.792,0.578,1.254,0.721
			c0.461,0.148,0.917,0.219,1.366,0.219c0.429,0,0.855-0.062,1.276-0.189c0.422-0.133,0.812-0.305,1.166-0.525
			c0.304-0.178,0.582-0.369,0.842-0.57c0.258-0.203,0.47-0.377,0.636-0.525h0.369v3.297c-0.345,0.152-0.675,0.297-0.989,0.434
			c-0.312,0.137-0.641,0.252-0.985,0.354c-0.45,0.131-0.871,0.229-1.265,0.295C70.649,347.262,70.107,347.295,69.42,347.295z"/>
		
			<linearGradient id="SVGID_27_" gradientUnits="userSpaceOnUse" x1="548.4395" y1="-42.2915" x2="404.5202" y2="282.7705" gradientTransform="matrix(1 0 0 1 -320.5 57.5)">
			<stop  offset="0" style="stop-color:#CED326"/>
			<stop  offset="1" style="stop-color:#2FCBD8"/>
		</linearGradient>
		<path fill="url(#SVGID_27_)" d="M88.653,347.027h-3.659l-0.957-2.785h-5.083l-0.958,2.785h-3.57l5.074-13.775h4.079
			L88.653,347.027z M83.186,341.717l-1.689-4.936l-1.69,4.936H83.186z"/>
		
			<linearGradient id="SVGID_28_" gradientUnits="userSpaceOnUse" x1="557.3232" y1="-38.5098" x2="413.3429" y2="286.6901" gradientTransform="matrix(1 0 0 1 -320.5 57.5)">
			<stop  offset="0" style="stop-color:#CED326"/>
			<stop  offset="1" style="stop-color:#2FCBD8"/>
		</linearGradient>
		<path fill="url(#SVGID_28_)" d="M99.591,347.027h-9.909v-13.775h3.542v11.111h6.367V347.027L99.591,347.027z"/>
		
			<linearGradient id="SVGID_29_" gradientUnits="userSpaceOnUse" x1="565.2646" y1="-34.8818" x2="421.321" y2="290.235" gradientTransform="matrix(1 0 0 1 -320.5 57.5)">
			<stop  offset="0" style="stop-color:#CED326"/>
			<stop  offset="1" style="stop-color:#2FCBD8"/>
		</linearGradient>
		<path fill="url(#SVGID_29_)" d="M108.206,347.027h-8.046v-2.441h2.25v-8.893h-2.25v-2.439h8.046v2.439h-2.251v8.893h2.251V347.027
			z"/>
		
			<linearGradient id="SVGID_30_" gradientUnits="userSpaceOnUse" x1="573.0811" y1="-31.3662" x2="429.156" y2="293.709" gradientTransform="matrix(1 0 0 1 -320.5 57.5)">
			<stop  offset="0" style="stop-color:#CED326"/>
			<stop  offset="1" style="stop-color:#2FCBD8"/>
		</linearGradient>
		<path fill="url(#SVGID_30_)" d="M120.012,335.916h-6.319v2.562h5.858v2.664h-5.858v5.885h-3.524v-13.775h9.844V335.916z"/>
		
			<linearGradient id="SVGID_31_" gradientUnits="userSpaceOnUse" x1="585.0117" y1="-26.1675" x2="441.0486" y2="298.9937" gradientTransform="matrix(1 0 0 1 -320.5 57.5)">
			<stop  offset="0" style="stop-color:#CED326"/>
			<stop  offset="1" style="stop-color:#2FCBD8"/>
		</linearGradient>
		<path fill="url(#SVGID_31_)" d="M134.872,340.143c0,2.195-0.626,3.939-1.881,5.232c-1.254,1.293-2.991,1.939-5.205,1.939
			c-2.208,0-3.939-0.646-5.194-1.939s-1.882-3.037-1.882-5.232c0-2.213,0.627-3.965,1.882-5.248
			c1.254-1.287,2.986-1.932,5.194-1.932c2.203,0,3.934,0.645,5.195,1.932C134.242,336.178,134.872,337.93,134.872,340.143z
			 M130.175,343.631c0.347-0.42,0.602-0.914,0.768-1.486c0.166-0.566,0.249-1.238,0.249-2.012c0-0.826-0.095-1.527-0.287-2.109
			c-0.19-0.578-0.439-1.045-0.747-1.404c-0.312-0.371-0.676-0.639-1.085-0.803c-0.408-0.17-0.833-0.254-1.278-0.254
			c-0.449,0-0.872,0.082-1.267,0.242c-0.398,0.16-0.765,0.426-1.096,0.797c-0.307,0.346-0.559,0.822-0.751,1.428
			c-0.192,0.607-0.291,1.314-0.291,2.113c0,0.82,0.095,1.521,0.281,2.096c0.188,0.576,0.437,1.049,0.743,1.412
			c0.306,0.363,0.667,0.633,1.08,0.807c0.413,0.172,0.845,0.26,1.301,0.26c0.455,0,0.89-0.09,1.302-0.266
			C129.508,344.275,129.868,344.002,130.175,343.631z"/>
		
			<linearGradient id="SVGID_32_" gradientUnits="userSpaceOnUse" x1="597.916" y1="-20.4019" x2="453.968" y2="304.7248" gradientTransform="matrix(1 0 0 1 -320.5 57.5)">
			<stop  offset="0" style="stop-color:#CED326"/>
			<stop  offset="1" style="stop-color:#2FCBD8"/>
		</linearGradient>
		<path fill="url(#SVGID_32_)" d="M149.861,347.027h-4.327l-3.738-5.051h-1.642v5.051h-3.523v-13.775h5.94
			c0.812,0,1.51,0.047,2.095,0.139s1.132,0.291,1.642,0.6c0.518,0.312,0.929,0.709,1.232,1.201c0.304,0.49,0.456,1.104,0.456,1.844
			c0,1.02-0.235,1.852-0.706,2.492c-0.47,0.641-1.144,1.174-2.017,1.6L149.861,347.027z M144.334,337.469
			c0-0.348-0.07-0.643-0.211-0.889c-0.143-0.248-0.385-0.441-0.729-0.584c-0.24-0.098-0.52-0.156-0.839-0.178
			c-0.32-0.021-0.691-0.035-1.116-0.035h-1.281v3.711h1.088c0.565,0,1.041-0.025,1.422-0.082s0.702-0.182,0.96-0.379
			c0.246-0.191,0.425-0.404,0.539-0.635S144.334,337.857,144.334,337.469z"/>
		
			<linearGradient id="SVGID_33_" gradientUnits="userSpaceOnUse" x1="609.1279" y1="-15.313" x2="465.2236" y2="309.7155" gradientTransform="matrix(1 0 0 1 -320.5 57.5)">
			<stop  offset="0" style="stop-color:#CED326"/>
			<stop  offset="1" style="stop-color:#2FCBD8"/>
		</linearGradient>
		<path fill="url(#SVGID_33_)" d="M162.958,347.027h-3.415l-5.83-9.457v9.457h-3.248v-13.775h4.235l5.011,7.893v-7.893h3.248
			L162.958,347.027L162.958,347.027z"/>
		
			<linearGradient id="SVGID_34_" gradientUnits="userSpaceOnUse" x1="619.3848" y1="-10.8477" x2="475.4455" y2="314.2591" gradientTransform="matrix(1 0 0 1 -320.5 57.5)">
			<stop  offset="0" style="stop-color:#CED326"/>
			<stop  offset="1" style="stop-color:#2FCBD8"/>
		</linearGradient>
		<path fill="url(#SVGID_34_)" d="M172.967,347.027h-8.045v-2.441h2.25v-8.893h-2.25v-2.439h8.045v2.439h-2.252v8.893h2.252V347.027
			z"/>
		
			<linearGradient id="SVGID_35_" gradientUnits="userSpaceOnUse" x1="631.168" y1="-5.6084" x2="487.2343" y2="319.4859" gradientTransform="matrix(1 0 0 1 -320.5 57.5)">
			<stop  offset="0" style="stop-color:#CED326"/>
			<stop  offset="1" style="stop-color:#2FCBD8"/>
		</linearGradient>
		<path fill="url(#SVGID_35_)" d="M187.623,347.027h-3.656l-0.959-2.785h-5.084l-0.957,2.785h-3.569l5.073-13.775h4.08
			L187.623,347.027z M182.154,341.717l-1.689-4.936l-1.688,4.936H182.154z"/>
		
			<linearGradient id="SVGID_36_" gradientUnits="userSpaceOnUse" x1="644.7393" y1="0.4976" x2="500.8387" y2="325.5175" gradientTransform="matrix(1 0 0 1 -320.5 57.5)">
			<stop  offset="0" style="stop-color:#CED326"/>
			<stop  offset="1" style="stop-color:#2FCBD8"/>
		</linearGradient>
		<path fill="url(#SVGID_36_)" d="M205.184,342.697c0,1.355-0.571,2.459-1.723,3.307c-1.146,0.85-2.703,1.271-4.674,1.271
			c-1.139,0-2.129-0.1-2.978-0.299c-0.844-0.201-1.635-0.457-2.372-0.764v-3.305h0.387c0.729,0.584,1.553,1.035,2.461,1.354
			c0.904,0.312,1.775,0.471,2.613,0.471c0.219,0,0.498-0.018,0.852-0.055c0.35-0.037,0.635-0.1,0.854-0.186
			c0.273-0.111,0.494-0.252,0.673-0.418c0.176-0.166,0.264-0.414,0.264-0.74c0-0.301-0.129-0.562-0.383-0.781
			c-0.258-0.219-0.629-0.387-1.123-0.504c-0.517-0.123-1.062-0.238-1.638-0.348c-0.575-0.107-1.114-0.246-1.618-0.41
			c-1.156-0.377-1.988-0.889-2.496-1.533s-0.761-1.441-0.761-2.398c0-1.283,0.572-2.33,1.722-3.143
			c1.146-0.812,2.621-1.217,4.424-1.217c0.904,0,1.797,0.088,2.68,0.264c0.886,0.18,1.646,0.396,2.293,0.662v3.174h-0.379
			c-0.553-0.443-1.231-0.816-2.03-1.115c-0.806-0.299-1.625-0.447-2.462-0.447c-0.297,0-0.588,0.018-0.883,0.061
			c-0.293,0.041-0.571,0.117-0.844,0.229c-0.238,0.094-0.447,0.23-0.615,0.42c-0.174,0.189-0.26,0.402-0.26,0.645
			c0,0.365,0.137,0.645,0.414,0.838c0.275,0.193,0.801,0.371,1.568,0.531c0.506,0.104,0.987,0.207,1.45,0.307
			c0.47,0.098,0.966,0.232,1.502,0.404c1.052,0.348,1.828,0.814,2.33,1.412C204.93,340.975,205.184,341.746,205.184,342.697z"/>
		
			<linearGradient id="SVGID_37_" gradientUnits="userSpaceOnUse" x1="655.1572" y1="5.1211" x2="511.2558" y2="330.1426" gradientTransform="matrix(1 0 0 1 -320.5 57.5)">
			<stop  offset="0" style="stop-color:#CED326"/>
			<stop  offset="1" style="stop-color:#2FCBD8"/>
		</linearGradient>
		<path fill="url(#SVGID_37_)" d="M218.695,342.039c0,1.703-0.515,3.01-1.549,3.914c-1.035,0.904-2.558,1.359-4.566,1.359
			c-2.012,0-3.533-0.455-4.561-1.359c-1.031-0.904-1.548-2.207-1.548-3.902v-8.799h3.562v8.594c0,0.957,0.199,1.668,0.6,2.139
			c0.398,0.469,1.051,0.703,1.947,0.703c0.885,0,1.531-0.225,1.939-0.674c0.411-0.453,0.616-1.172,0.616-2.168v-8.594h3.56V342.039
			L218.695,342.039z"/>
		
			<linearGradient id="SVGID_38_" gradientUnits="userSpaceOnUse" x1="668.4727" y1="10.9395" x2="524.5337" y2="336.046" gradientTransform="matrix(1 0 0 1 -320.5 57.5)">
			<stop  offset="0" style="stop-color:#CED326"/>
			<stop  offset="1" style="stop-color:#2FCBD8"/>
		</linearGradient>
		<path fill="url(#SVGID_38_)" d="M234.293,347.027h-4.326l-3.735-5.051h-1.646v5.051h-3.521v-13.775h5.94
			c0.812,0,1.51,0.047,2.094,0.139c0.586,0.092,1.134,0.291,1.644,0.6c0.516,0.312,0.928,0.709,1.231,1.201
			c0.308,0.49,0.457,1.104,0.457,1.844c0,1.02-0.235,1.852-0.707,2.492c-0.471,0.641-1.143,1.174-2.016,1.6L234.293,347.027z
			 M228.768,337.469c0-0.348-0.067-0.643-0.213-0.889c-0.141-0.248-0.385-0.441-0.727-0.584c-0.24-0.098-0.521-0.156-0.842-0.178
			c-0.318-0.021-0.693-0.035-1.113-0.035h-1.285v3.711h1.09c0.564,0,1.039-0.025,1.422-0.082c0.382-0.057,0.699-0.182,0.957-0.379
			c0.248-0.191,0.429-0.404,0.543-0.635C228.711,338.17,228.768,337.857,228.768,337.469z"/>
		
			<linearGradient id="SVGID_39_" gradientUnits="userSpaceOnUse" x1="683.2773" y1="17.5225" x2="539.342" y2="342.6204" gradientTransform="matrix(1 0 0 1 -320.5 57.5)">
			<stop  offset="0" style="stop-color:#CED326"/>
			<stop  offset="1" style="stop-color:#2FCBD8"/>
		</linearGradient>
		<path fill="url(#SVGID_39_)" d="M249.961,332.629l-7.314,17.395h-2.831l7.286-17.395H249.961z"/>
		
			<linearGradient id="SVGID_40_" gradientUnits="userSpaceOnUse" x1="699.8457" y1="24.9346" x2="555.9368" y2="349.9736" gradientTransform="matrix(1 0 0 1 -320.5 57.5)">
			<stop  offset="0" style="stop-color:#CED326"/>
			<stop  offset="1" style="stop-color:#2FCBD8"/>
		</linearGradient>
		<path fill="url(#SVGID_40_)" d="M272.451,347.027h-3.525v-9.225l-2.547,5.986h-2.447l-2.543-5.986v9.225h-3.344v-13.775h4.115
			l3.09,6.91l3.082-6.91h4.119V347.027L272.451,347.027z"/>
		
			<linearGradient id="SVGID_41_" gradientUnits="userSpaceOnUse" x1="712.2188" y1="30.3018" x2="568.2512" y2="355.4728" gradientTransform="matrix(1 0 0 1 -320.5 57.5)">
			<stop  offset="0" style="stop-color:#CED326"/>
			<stop  offset="1" style="stop-color:#2FCBD8"/>
		</linearGradient>
		<path fill="url(#SVGID_41_)" d="M284.967,347.027h-9.938v-13.775h9.938v2.664h-6.414v2.379h5.953v2.664h-5.953v3.402h6.414
			V347.027z M283.408,328.068v0.188l-3.248,3.447h-2.271l2.279-3.635H283.408L283.408,328.068z"/>
		
			<linearGradient id="SVGID_42_" gradientUnits="userSpaceOnUse" x1="722.6191" y1="35.0596" x2="578.718" y2="360.0805" gradientTransform="matrix(1 0 0 1 -320.5 57.5)">
			<stop  offset="0" style="stop-color:#CED326"/>
			<stop  offset="1" style="stop-color:#2FCBD8"/>
		</linearGradient>
		<path fill="url(#SVGID_42_)" d="M299.447,347.027h-4.101l-2.955-4.521l-3.018,4.521h-3.916l4.873-6.939l-4.771-6.836h4.091
			l2.858,4.289l2.937-4.289h3.928l-4.795,6.689L299.447,347.027z"/>
		
			<linearGradient id="SVGID_43_" gradientUnits="userSpaceOnUse" x1="732.1719" y1="39.2266" x2="588.2355" y2="364.3268" gradientTransform="matrix(1 0 0 1 -320.5 57.5)">
			<stop  offset="0" style="stop-color:#CED326"/>
			<stop  offset="1" style="stop-color:#2FCBD8"/>
		</linearGradient>
		<path fill="url(#SVGID_43_)" d="M307.924,347.027h-8.047v-2.441h2.254v-8.893h-2.254v-2.439h8.047v2.439h-2.252v8.893h2.252
			V347.027z"/>
		
			<linearGradient id="SVGID_44_" gradientUnits="userSpaceOnUse" x1="742.2246" y1="43.6738" x2="598.2806" y2="368.7921" gradientTransform="matrix(1 0 0 1 -320.5 57.5)">
			<stop  offset="0" style="stop-color:#CED326"/>
			<stop  offset="1" style="stop-color:#2FCBD8"/>
		</linearGradient>
		<path fill="url(#SVGID_44_)" d="M316.096,347.295c-1.021,0-1.963-0.15-2.83-0.453c-0.86-0.303-1.604-0.75-2.227-1.35
			c-0.619-0.604-1.102-1.348-1.441-2.24c-0.344-0.895-0.514-1.928-0.514-3.102c0-1.092,0.162-2.08,0.488-2.971
			c0.326-0.889,0.801-1.648,1.422-2.283c0.596-0.611,1.334-1.084,2.219-1.416s1.846-0.5,2.894-0.5c0.575,0,1.1,0.031,1.563,0.098
			c0.463,0.066,0.894,0.15,1.285,0.254c0.412,0.117,0.785,0.25,1.123,0.395c0.334,0.146,0.627,0.279,0.879,0.402v3.34h-0.404
			c-0.172-0.146-0.389-0.32-0.649-0.521c-0.265-0.205-0.56-0.404-0.892-0.602c-0.338-0.193-0.705-0.361-1.096-0.496
			c-0.396-0.135-0.816-0.203-1.266-0.203c-0.5,0-0.978,0.08-1.422,0.236c-0.451,0.154-0.863,0.416-1.246,0.781
			c-0.363,0.348-0.66,0.812-0.881,1.395c-0.228,0.574-0.339,1.277-0.339,2.104c0,0.861,0.121,1.582,0.363,2.162
			c0.244,0.576,0.553,1.033,0.918,1.367c0.375,0.336,0.795,0.578,1.256,0.721c0.461,0.148,0.92,0.219,1.365,0.219
			c0.432,0,0.854-0.062,1.277-0.189c0.422-0.133,0.811-0.305,1.168-0.525c0.303-0.178,0.58-0.369,0.84-0.57
			c0.26-0.203,0.471-0.377,0.639-0.525h0.365v3.297c-0.346,0.152-0.672,0.297-0.984,0.434c-0.312,0.137-0.643,0.252-0.987,0.354
			c-0.449,0.131-0.869,0.229-1.265,0.295C317.326,347.262,316.785,347.295,316.096,347.295z"/>
		
			<linearGradient id="SVGID_45_" gradientUnits="userSpaceOnUse" x1="753.0811" y1="48.478" x2="609.1299" y2="373.6118" gradientTransform="matrix(1 0 0 1 -320.5 57.5)">
			<stop  offset="0" style="stop-color:#CED326"/>
			<stop  offset="1" style="stop-color:#2FCBD8"/>
		</linearGradient>
		<path fill="url(#SVGID_45_)" d="M335.994,340.143c0,2.195-0.629,3.939-1.883,5.232s-2.99,1.939-5.205,1.939
			c-2.209,0-3.939-0.646-5.193-1.939c-1.256-1.293-1.885-3.037-1.885-5.232c0-2.213,0.629-3.965,1.885-5.248
			c1.254-1.287,2.984-1.932,5.193-1.932c2.205,0,3.934,0.645,5.194,1.932C335.361,336.178,335.994,337.93,335.994,340.143z
			 M331.297,343.631c0.344-0.42,0.603-0.914,0.769-1.486c0.166-0.566,0.25-1.238,0.25-2.012c0-0.826-0.099-1.527-0.287-2.109
			c-0.191-0.578-0.439-1.045-0.748-1.404c-0.314-0.371-0.677-0.639-1.084-0.803c-0.41-0.17-0.834-0.254-1.277-0.254
			c-0.449,0-0.873,0.082-1.27,0.242s-0.763,0.426-1.097,0.797c-0.305,0.346-0.555,0.822-0.75,1.428
			c-0.192,0.607-0.291,1.314-0.291,2.113c0,0.82,0.095,1.521,0.283,2.096c0.188,0.576,0.437,1.049,0.742,1.412
			c0.305,0.363,0.668,0.633,1.08,0.807c0.412,0.172,0.842,0.26,1.301,0.26c0.453,0,0.887-0.09,1.301-0.266
			C330.629,344.275,330.988,344.002,331.297,343.631z"/>
	</g>
</g>
</svg>
